<?xml version="1.0" encoding="UTF-8"?>
<svg version="1.1" xmlns="http://www.w3.org/2000/svg" width="374" height="668">
<path d="M0 0 C6.77827068 2.25942356 9.93826454 12.65432065 13.0625 18.8125 C16.01978165 24.73609636 18.5755809 30.72187364 20.859375 36.94140625 C21.96379899 39.90292676 23.18062317 42.78793288 24.4375 45.6875 C32.59929651 65.28604586 36.88120116 85.54603854 40.3125 106.4375 C40.48410645 107.47334229 40.65571289 108.50918457 40.83251953 109.57641602 C41.7039084 115.12595465 42.18075383 120.383242 42 126 C41.01 126.33 40.02 126.66 39 127 C36.53009144 125.75456732 34.26886331 124.46893201 31.9375 123 C30.93203125 122.38185425 30.93203125 122.38185425 29.90625 121.7512207 C25.20582003 118.83431521 20.65560063 115.73751383 16.1640625 112.5078125 C13.21404888 110.45238785 10.1574361 108.71599788 7 107 C7 106.34 7 105.68 7 105 C6.11683105 104.73719238 5.23366211 104.47438477 4.32373047 104.20361328 C1.08162609 103.02955903 -1.33761637 101.67198888 -4.1796875 99.7421875 C-5.571875 98.80439453 -5.571875 98.80439453 -6.9921875 97.84765625 C-7.94351563 97.19667969 -8.89484375 96.54570312 -9.875 95.875 C-10.84953125 95.21628906 -11.8240625 94.55757813 -12.828125 93.87890625 C-15.22305854 92.25880415 -17.61342751 90.63238252 -20 89 C-27.11773074 92.38066753 -32.14454728 98.9306841 -37 105 C-36.08476562 104.4946875 -35.16953125 103.989375 -34.2265625 103.46875 C-33.02616155 102.81228073 -31.82563413 102.1560427 -30.625 101.5 C-30.02171875 101.16613281 -29.4184375 100.83226562 -28.796875 100.48828125 C-24.2265625 98 -24.2265625 98 -22 98 C-22 97.34 -22 96.68 -22 96 C-18.58010704 97.25933231 -15.76747625 98.68642419 -12.8125 100.8125 C-11.94753906 101.43125 -11.08257812 102.05 -10.19140625 102.6875 C-8.61166016 103.8321875 -8.61166016 103.8321875 -7 105 C-5.61345562 106.00024176 -4.22672281 107.00022235 -2.83984375 108 C0.26256479 110.23792922 3.36231366 112.47949058 6.4609375 114.72265625 C10.41847988 117.58476288 14.39376948 120.42099498 18.375 123.25 C22.54275635 126.21551894 26.66714941 129.23078675 30.75 132.3125 C35.96095529 136.24184196 41.21874714 140.10315851 46.5 143.9375 C47.27827148 144.50573486 48.05654297 145.07396973 48.85839844 145.65942383 C49.59606445 146.1933374 50.33373047 146.72725098 51.09375 147.27734375 C51.75052734 147.75421631 52.40730469 148.23108887 53.08398438 148.72241211 C54.9957254 149.99714972 56.93865374 150.99122441 59 152 C59.02514475 145.95752245 59.04306495 139.91507684 59.05493164 133.87255859 C59.05989044 131.82665475 59.06665952 129.7807543 59.07543945 127.73486328 C59.15412129 108.89750497 58.72918299 90.25634939 56.25 71.5625 C56.16551605 70.91032501 56.0810321 70.25815002 55.99398804 69.58621216 C54.54728529 58.51106506 52.34995047 47.75502438 49.48681641 36.96435547 C48.83447478 34.33208832 48.39054586 31.68232043 48 29 C48.66 29 49.32 29 50 29 C72.49555966 66.51207611 85.55375396 138.13500914 75.4375 181.33984375 C75.293125 181.88769531 75.14875 182.43554688 75 183 C71.40142046 183 69.90548882 182.04169485 67 180 C67 179.34 67 178.68 67 178 C66.29746094 177.77183594 65.59492188 177.54367187 64.87109375 177.30859375 C61.42522093 175.73802587 58.86413768 173.55045078 56.0625 171.0625 C51.42534625 167.03918531 46.72165856 163.14358558 41.875 159.375 C36.85402412 155.46232859 31.89190392 151.49068198 26.9765625 147.4453125 C22.64045971 143.88310732 18.28080559 140.35005526 13.92260742 136.81494141 C10.86608337 134.33423129 7.81237096 131.85073806 4.77734375 129.34375 C0.86619019 126.11583785 -3.00649163 122.93590217 -7.1875 120.0625 C-8.115625 119.381875 -9.04375 118.70125 -10 118 C-10 117.34 -10 116.68 -10 116 C-10.721875 115.7525 -11.44375 115.505 -12.1875 115.25 C-15 114 -15 114 -17.4375 111.8125 C-19.86807918 109.72329815 -19.86807918 109.72329815 -22.875 110 C-26.66712425 111.21347976 -29.61792579 112.90311399 -33 115 C-30.98673721 115.05130438 -30.98673721 115.05130438 -28.96875 114.68359375 C-24.71573003 114.25963765 -22.01312048 114.31545913 -18.3984375 116.7578125 C-15.84090025 119.09364374 -13.41250901 121.51523614 -11 124 C-9.78480413 125.09898171 -8.55630122 126.1835009 -7.3125 127.25 C-6.68214844 127.79914063 -6.05179688 128.34828125 -5.40234375 128.9140625 C-4.60957031 129.60242188 -3.81679688 130.29078125 -3 131 C-2.15332764 131.73621582 -2.15332764 131.73621582 -1.28955078 132.48730469 C0.6812293 134.20071993 2.65297148 135.91302183 4.625 137.625 C5.57572388 138.45112793 5.57572388 138.45112793 6.5456543 139.29394531 C7.47051636 140.09590332 7.47051636 140.09590332 8.4140625 140.9140625 C9.01250977 141.43387695 9.61095703 141.95369141 10.22753906 142.48925781 C11.94537971 143.95344486 13.69903531 145.36288237 15.4609375 146.7734375 C16.29882812 147.50820313 17.13671875 148.24296875 18 149 C18 149.66 18 150.32 18 151 C18.56976563 151.25007812 19.13953125 151.50015625 19.7265625 151.7578125 C22.33139623 153.18107216 24.20270702 154.85098641 26.375 156.875 C30.53511278 160.6909971 34.76548796 164.40148274 39.0625 168.0625 C40.82905251 169.57354356 42.59495785 171.08534093 44.36083984 172.59716797 C45.87132099 173.88987346 47.38287634 175.18132351 48.89453125 176.47265625 C49.71308594 177.18292969 50.53164063 177.89320313 51.375 178.625 C52.08398438 179.23601562 52.79296875 179.84703125 53.5234375 180.4765625 C55 182 55 182 55 184 C55.59167969 184.27328125 56.18335938 184.5465625 56.79296875 184.828125 C59.73083309 186.38805297 61.91328396 188.38576289 64.36328125 190.62109375 C66.49299216 192.54256626 68.65401891 194.38589962 70.85546875 196.22265625 C72.2379463 197.41815335 73.61944788 198.61477994 75 199.8125 C75.68360596 200.3684082 76.36721191 200.92431641 77.0715332 201.49707031 C79.68005566 203.81003287 81.6812954 205.65971128 82.50390625 209.11914062 C82.57129032 211.80776484 82.33197181 214.32987832 82 217 C81.87882812 218.15443604 81.75765625 219.30887207 81.6328125 220.49829102 C81.15658973 224.63573745 80.59678397 228.75357218 80 232.875 C79.89184967 233.62933319 79.78369934 234.38366638 79.67227173 235.16085815 C73.68205601 276.41834088 64.15797949 321.89498529 40.41015625 356.87109375 C38.96746558 358.94964323 38.96746558 358.94964323 37.94921875 361.14453125 C36.52040638 363.93747724 34.21330308 365.78669692 32 368 C30.39863218 370.11286123 28.85312668 372.25450782 27.33203125 374.42578125 C26.89246094 374.94527344 26.45289063 375.46476562 26 376 C25.34 376 24.68 376 24 376 C25.44227045 372.17418785 27.17442366 368.541085 28.96948242 364.87353516 C48.59335054 324.56437693 58.03935453 280.32323821 58.3125 235.5625 C58.31813965 234.72404541 58.3237793 233.88559082 58.32958984 233.02172852 C58.22629156 224.44184299 57.76852055 216.92256057 51.55834961 210.55053711 C50.98221924 209.99760986 50.40608887 209.44468262 49.8125 208.875 C48.62169632 207.6660532 47.43158508 206.45642394 46.2421875 205.24609375 C45.67467773 204.68132324 45.10716797 204.11655273 44.52246094 203.53466797 C42.74043896 201.73835781 41.07586227 199.86522476 39.4375 197.9375 C34.44343309 192.15619102 29.1949878 186.60020318 24 181 C12.27466081 168.36007006 12.27466081 168.36007006 8.625 164.125 C5.83012771 160.88486619 2.91643346 157.77059408 -0.01806641 154.65771484 C-6.31535369 147.97626488 -12.26988575 141.1773505 -18 134 C-21.48738827 129.39400569 -21.48738827 129.39400569 -26 126 C-29.54171978 125.83330682 -29.54171978 125.83330682 -33 126 C-33.33 126.33 -33.66 126.66 -34 127 C-33.113125 127.350625 -32.22625 127.70125 -31.3125 128.0625 C-26.2510469 131.02297257 -24.07917017 135.08441286 -21.24609375 140.11328125 C-18.56527474 144.83027581 -15.61711439 149.37249482 -12.6875 153.9375 C-5.68670296 164.89278387 1.21354983 175.90859374 8.09130859 186.94140625 C10.66686157 191.06861623 13.25027001 195.19088407 15.83398438 199.31298828 C17.7138537 202.31723408 19.58579194 205.32631113 21.45703125 208.3359375 C23.73174258 211.99010718 26.04078474 215.61775123 28.38671875 219.2265625 C29.16354004 220.44206787 29.16354004 220.44206787 29.95605469 221.68212891 C30.9071763 223.17025491 31.87162702 224.64999211 32.85253906 226.11865234 C33.27116211 226.78074707 33.68978516 227.4428418 34.12109375 228.125 C34.4864624 228.68445313 34.85183105 229.24390625 35.22827148 229.8203125 C37.28625126 235.63291721 35.81470425 242.60880133 35.01171875 248.6015625 C34.85592094 249.79995255 34.85592094 249.79995255 34.69697571 251.02255249 C34.4767306 252.70531326 34.25388741 254.38773585 34.02856445 256.06982422 C33.69132444 258.59634817 33.36560218 261.12416693 33.04101562 263.65234375 C31.7887782 273.22815941 30.19584781 282.58964317 28 292 C27.78931885 292.94891113 27.5786377 293.89782227 27.36157227 294.87548828 C21.28323178 322.18341542 13.38103067 349.01680901 3 375 C2.57589844 376.10859375 2.15179688 377.2171875 1.71484375 378.359375 C-2.09261536 388.02131424 -7.02598707 397.21756085 -11.71923828 406.47070312 C-13.49307273 409.97373875 -15.247299 413.48634999 -17 417 C-17.66 417 -18.32 417 -19 417 C-19.2475 417.845625 -19.495 418.69125 -19.75 419.5625 C-21.13973627 423.38427474 -22.91120838 426.51868063 -25 430 C-25.66 430 -26.32 430 -27 430 C-25.59405355 425.67516607 -24.17158745 421.36593895 -22.52734375 417.125 C-5.05832688 372.02297355 5.98352974 324.01389096 11 276 C11.11859375 274.90413574 11.2371875 273.80827148 11.359375 272.67919922 C11.66966702 269.78729603 11.96470734 266.89446645 12.25 264 C12.33024414 263.22019775 12.41048828 262.44039551 12.49316406 261.63696289 C12.72301409 259.09230923 12.86332551 256.55140207 13 254 C13.10546143 252.74590332 13.21092285 251.49180664 13.31958008 250.19970703 C14.05615586 238.31841567 10.71570061 230.21432848 5.1875 219.875 C4.39726343 218.33530482 3.61060009 216.79377085 2.82739258 215.25048828 C1.27850419 212.20602002 -0.28526531 209.17009293 -1.86328125 206.140625 C-4.64483488 200.78092651 -7.24020786 195.33759544 -9.8125 189.875 C-10.6684467 188.08033587 -11.52521298 186.2860624 -12.3828125 184.4921875 C-13.75566467 181.61328819 -15.12659407 178.73349922 -16.49511719 175.85253906 C-19.52237316 169.48146372 -22.56687879 163.11946911 -25.65136719 156.77587891 C-26.50315148 155.02265888 -27.35072611 153.2673817 -28.19238281 151.50927734 C-29.21181256 149.39098765 -30.25633086 147.28765274 -31.3125 145.1875 C-31.86550781 144.06730469 -32.41851562 142.94710937 -32.98828125 141.79296875 C-35.58953273 138.18152252 -38.03555156 136.95617348 -42 135 C-44.34721797 138.75161459 -44.34721797 138.75161459 -44.73046875 142.97753906 C-43.96058931 145.10911704 -43.02396397 146.73773648 -41.75 148.609375 C-41.3065625 149.28226563 -40.863125 149.95515625 -40.40625 150.6484375 C-39.47595924 152.03870535 -38.53854576 153.42423592 -37.59375 154.8046875 C-37.1503125 155.48273438 -36.706875 156.16078125 -36.25 156.859375 C-35.84265625 157.46233398 -35.4353125 158.06529297 -35.015625 158.68652344 C-32.37125654 164.71008967 -32.93432932 171.05068589 -33.73828125 177.40234375 C-33.83128006 178.17980453 -33.92427887 178.95726532 -34.02009583 179.75828552 C-35.06193518 188.09179232 -36.55445766 196.32726401 -38.1875 204.5625 C-38.33895477 205.33526276 -38.49040955 206.10802551 -38.64645386 206.90420532 C-41.38708741 220.81551344 -44.72470428 234.47267783 -49 248 C-49.27763184 248.88381348 -49.55526367 249.76762695 -49.84130859 250.67822266 C-50.62242247 253.12675859 -51.42730762 255.56515247 -52.25 258 C-52.60106812 259.06093872 -52.60106812 259.06093872 -52.95922852 260.14331055 C-53.640625 262.0625 -53.640625 262.0625 -55 265 C-55.99 265.33 -56.98 265.66 -58 266 C-58 265.34 -58 264.68 -58 264 C-63.10762449 261.59641201 -67.60213201 261.33911754 -73 263 C-73 263.66 -73 264.32 -73 265 C-73.99 265 -74.98 265 -76 265 C-84.03856499 246.62613717 -88.90383854 227.48926044 -92.8125 207.875 C-93.03303543 206.77073669 -93.03303543 206.77073669 -93.25802612 205.64416504 C-95.14209868 196.13472927 -96.77157767 186.61989084 -98 177 C-98.09821045 176.25621094 -98.1964209 175.51242187 -98.29760742 174.74609375 C-99.59329598 163.4468622 -95.81347316 155.67057505 -89 147 C-88.34 147 -87.68 147 -87 147 C-86.75571657 141.2025577 -86.75571657 141.2025577 -89 136 C-93.39495267 136.48832807 -95.12810115 137.68520591 -98 141 C-99.67817379 143.89829576 -99.67817379 143.89829576 -101.171875 147.171875 C-101.45798645 147.77195374 -101.7440979 148.37203247 -102.03887939 148.99029541 C-102.95063175 150.90650496 -103.85072938 152.82790595 -104.75 154.75 C-105.92941101 157.24615961 -107.11325754 159.74020783 -108.296875 162.234375 C-108.59662735 162.8680751 -108.8963797 163.50177521 -109.20521545 164.15467834 C-111.70550936 169.42501343 -114.30299142 174.64304501 -116.92301941 179.85466003 C-120.50445367 186.98538465 -123.99878394 194.15764385 -127.48217773 201.33666992 C-128.56405041 203.56569437 -129.64815554 205.79362347 -130.73242188 208.02148438 C-132.14986595 210.93546469 -133.55813352 213.85362443 -134.95996094 216.77514648 C-136.29966377 219.5656602 -137.66932516 222.33812947 -139.06347656 225.10180664 C-142.40761598 231.82086501 -145.11251676 237.64737673 -144.625 245.3125 C-144.58487793 246.58734253 -144.58487793 246.58734253 -144.54394531 247.88793945 C-144.42008585 250.93122997 -144.21745072 253.96195397 -144 257 C-143.91395508 258.2694043 -143.82791016 259.53880859 -143.73925781 260.84667969 C-140.50376163 307.22477824 -131.09918996 353.04064396 -115.70507812 396.93701172 C-114.69546865 399.89102837 -113.81689066 402.88002609 -112.9375 405.875 C-111.27797929 411.4358501 -109.15826705 416.75051283 -106.84155273 422.06591797 C-104.89313115 426.67939345 -104.89313115 426.67939345 -106 430 C-108.72881515 426.55894693 -110.93962823 422.86088427 -113.125 419.0625 C-113.66447266 418.15081055 -113.66447266 418.15081055 -114.21484375 417.22070312 C-116.16444793 413.83627789 -117.51289075 410.88949355 -118 407 C-118.66 407 -119.32 407 -120 407 C-121.11227062 404.56306538 -122.22042182 402.12438415 -123.32421875 399.68359375 C-124.53942272 397.00122608 -125.7763244 394.3296509 -127.01953125 391.66015625 C-145.53304791 351.62121628 -158.22186094 308.37735258 -164.46533203 264.70214844 C-164.82855509 262.18711903 -165.21041728 259.6747255 -165.60888672 257.16503906 C-166.2012234 253.40673201 -166.73340831 249.6443831 -167.25 245.875 C-167.43280518 244.75577148 -167.61561035 243.63654297 -167.80395508 242.48339844 C-168.92035112 233.41839916 -166.12232929 228.34115673 -161 221 C-160.19805462 219.70604129 -159.40359461 218.40737181 -158.62109375 217.1015625 C-157.89527062 215.94142862 -157.16736533 214.78259511 -156.4375 213.625 C-156.02314697 212.9640332 -155.60879395 212.30306641 -155.18188477 211.62207031 C-152.75494057 207.75915093 -150.30580504 203.91093951 -147.84375 200.0703125 C-140.81329804 189.09457487 -133.95316413 178.0335824 -127.21859741 166.875 C-121.69945641 157.73515969 -116.05888448 148.69172995 -110.1550293 139.79492188 C-109.3190638 138.4958269 -108.51438416 137.17642242 -107.72973633 135.84570312 C-107.3045874 135.12833984 -106.87943848 134.41097656 -106.44140625 133.671875 C-106.06443604 133.01799805 -105.68746582 132.36412109 -105.29907227 131.69042969 C-103.0699543 128.78976951 -100.42641931 128.07495508 -97 127 C-99.98997825 125.50501087 -102.70042775 125.88422554 -106 126 C-109.05866453 126.63430148 -109.05866453 126.63430148 -109.890625 128.69921875 C-110.25671875 129.45847656 -110.6228125 130.21773437 -111 131 C-112.54724897 132.98563618 -114.11211706 134.90483784 -115.75 136.8125 C-116.22663086 137.37219482 -116.70326172 137.93188965 -117.19433594 138.50854492 C-122.24393711 144.38060675 -127.55008163 150.00834337 -132.859375 155.64453125 C-135.12550539 158.05411272 -137.34426533 160.49041999 -139.5 163 C-143.39740386 167.52728731 -147.50774211 171.85542208 -151.59008789 176.21508789 C-164.92558062 190.41900885 -164.92558062 190.41900885 -177.625 205.1875 C-180 208 -180 208 -182.5625 210.5 C-186.82168544 214.86839532 -189.44104081 218.34901087 -189.52967834 224.63163757 C-189.51859543 225.32425186 -189.50751251 226.01686615 -189.49609375 226.73046875 C-189.49890854 227.46977127 -189.50172333 228.20907379 -189.50462341 228.97077942 C-189.50539236 231.37709636 -189.47387013 233.78147622 -189.4375 236.1875 C-189.43034973 237.01467529 -189.42319946 237.84185059 -189.41583252 238.6940918 C-189.1476468 268.50368936 -184.52549014 297.42000538 -176 326 C-175.76788818 326.78753662 -175.53577637 327.57507324 -175.29663086 328.38647461 C-170.88514319 343.06156682 -165.3501795 358.61364978 -157.34448242 371.70776367 C-156 374 -156 374 -156 376 C-156.66 376 -157.32 376 -158 376 C-159.61558852 374.16146637 -161.0960313 372.32825522 -162.5625 370.375 C-163.23067749 369.48820557 -163.23067749 369.48820557 -163.91235352 368.58349609 C-193.59205246 328.71932872 -217.93127584 258.71345837 -214 208 C-211.9375 205.5625 -211.9375 205.5625 -209 203 C-207.76581815 201.73403664 -206.53679826 200.46302413 -205.3125 199.1875 C-203.55078125 197.35546875 -203.55078125 197.35546875 -202 196 C-201.34 196 -200.68 196 -200 196 C-199.773125 195.4225 -199.54625 194.845 -199.3125 194.25 C-197.65151778 191.40260191 -195.68475439 189.87932807 -193 188 C-192.34 188 -191.68 188 -191 188 C-191 187.34 -191 186.68 -191 186 C-190.34 186 -189.68 186 -189 186 C-189 185.34 -189 184.68 -189 184 C-185.53846154 181 -185.53846154 181 -183 181 C-183 180.34 -183 179.68 -183 179 C-181.390625 177.34375 -181.390625 177.34375 -179.25 175.5 C-178.55390625 174.8915625 -177.8578125 174.283125 -177.140625 173.65625 C-175.15539208 172.12023037 -173.28127955 171.0276034 -171 170 C-171 169.34 -171 168.68 -171 168 C-170.34 168 -169.68 168 -169 168 C-169 167.34 -169 166.68 -169 166 C-166.525 165.01 -166.525 165.01 -164 164 C-164 163.34 -164 162.68 -164 162 C-162.35546875 160.30859375 -162.35546875 160.30859375 -160.1875 158.4375 C-159.47980469 157.81746094 -158.77210938 157.19742188 -158.04296875 156.55859375 C-156 155 -156 155 -153 154 C-153 153.34 -153 152.68 -153 152 C-151.48772933 150.6697891 -149.91330976 149.40972409 -148.3125 148.1875 C-145.4051017 145.92892788 -142.5961499 143.73690823 -140.0625 141.0625 C-138 139 -138 139 -135 138 C-134.71382813 137.40832031 -134.42765625 136.81664062 -134.1328125 136.20703125 C-132.59702503 133.21489359 -130.51332385 131.75626926 -127.875 129.6875 C-123.63612697 126.32313822 -119.54699541 122.8715696 -115.55859375 119.21484375 C-114 118 -114 118 -112 118 C-111.505 116.515 -111.505 116.515 -111 115 C-106.71 115 -102.42 115 -98 115 C-99.711875 114.13375 -101.42375 113.2675 -103.1875 112.375 C-104.15042969 111.88773437 -105.11335938 111.40046875 -106.10546875 110.8984375 C-108.90961886 109.76503844 -108.90961886 109.76503844 -111.46875 110.55078125 C-114.64837321 112.37121368 -117.47561261 114.51033935 -120.3125 116.8125 C-120.91860107 117.29678467 -121.52470215 117.78106934 -122.14916992 118.2800293 C-124.10502287 119.84655845 -126.05304624 121.42242877 -128 123 C-129.29166667 124.04166667 -130.58333333 125.08333333 -131.875 126.125 C-137.38704896 130.58163794 -142.87632649 135.06519377 -148.3359375 139.5859375 C-154.7362993 144.88432147 -161.12856669 150.16636427 -167.75 155.1875 C-172.70803249 158.95387587 -177.4576383 162.89663385 -182.17871094 166.95019531 C-186.75445823 170.85279315 -191.49657139 174.46520013 -196.34375 178.02734375 C-199.05597437 179.98778503 -199.05597437 179.98778503 -201.65625 182.31640625 C-202.4296875 182.87199219 -203.203125 183.42757812 -204 184 C-204.99 183.67 -205.98 183.34 -207 183 C-212.44164063 166.67507811 -207.80806801 141.7798419 -206 125 C-205.79866455 123.12393066 -205.79866455 123.12393066 -205.59326172 121.20996094 C-199.49792533 65.43963023 -199.49792533 65.43963023 -188 42 C-187.19294674 40.25238096 -186.38607887 38.50467137 -185.58374023 36.75488281 C-184.39634039 34.16659455 -183.19788868 31.58344658 -182 29 C-181.34 29 -180.68 29 -180 29 C-180.45283897 33.07555069 -181.20371432 36.81914074 -182.375 40.75 C-184.71354354 49.00368309 -185.77639018 57.52400752 -187 66 C-187.15662109 67.07056641 -187.31324219 68.14113281 -187.47460938 69.24414062 C-189.99698899 87.27587296 -190.24386981 105.05618988 -190.125 123.25 C-190.11377969 125.95311915 -190.10568273 128.65624472 -190.09765625 131.359375 C-190.07587713 137.90633125 -190.04261997 144.45314793 -190 151 C-186.24835571 149.56506978 -183.40843732 147.99347454 -180.234375 145.515625 C-178.89826172 144.48308594 -178.89826172 144.48308594 -177.53515625 143.4296875 C-176.61605469 142.71039063 -175.69695312 141.99109375 -174.75 141.25 C-168.94824526 136.73108689 -163.15893485 132.3119518 -156.98144531 128.31542969 C-154.93659524 126.99498893 -154.93659524 126.99498893 -152.87011719 125.33300781 C-151 124 -151 124 -149 124 C-149 123.34 -149 122.68 -149 122 C-147.2613167 120.65758904 -145.45372969 119.40439544 -143.625 118.1875 C-142.43749169 117.38735801 -141.25137405 116.58514955 -140.06640625 115.78125 C-139.41816895 115.34167969 -138.76993164 114.90210938 -138.10205078 114.44921875 C-133.42880802 111.22734081 -128.85847058 107.85923065 -124.27001953 104.51831055 C-122.83564798 103.47661926 -121.39703735 102.44073208 -119.95361328 101.41162109 C-118.71873511 100.51933597 -117.50061919 99.60294541 -116.30810547 98.65478516 C-114.77734375 97.48828125 -114.77734375 97.48828125 -112 96 C-109.45703125 96.5546875 -109.45703125 96.5546875 -107 98 C-106.11699219 98.49757813 -105.23398438 98.99515625 -104.32421875 99.5078125 C-103.45410156 100.04148437 -102.58398438 100.57515625 -101.6875 101.125 C-100.80449219 101.66382813 -99.92148438 102.20265625 -99.01171875 102.7578125 C-98.34785156 103.16773438 -97.68398437 103.57765625 -97 104 C-96.67 103.67 -96.34 103.34 -96 103 C-96.6496875 102.37351562 -97.299375 101.74703125 -97.96875 101.1015625 C-98.8040625 100.28429687 -99.639375 99.46703125 -100.5 98.625 C-101.3353125 97.81289063 -102.170625 97.00078125 -103.03125 96.1640625 C-105 94 -105 94 -105 92 C-105.61875 91.690625 -106.2375 91.38125 -106.875 91.0625 C-108.25 90.375 -109.625 89.6875 -111 89 C-113.54231204 90.46600475 -115.94486285 91.98815403 -118.375 93.625 C-119.92437319 94.64859793 -121.47385689 95.6720286 -123.0234375 96.6953125 C-123.83780273 97.23704102 -124.65216797 97.77876953 -125.49121094 98.33691406 C-129.6412662 101.08800169 -133.82220596 103.79130698 -138 106.5 C-139.67851552 107.59094569 -141.35690132 108.68209099 -143.03515625 109.7734375 C-147.83453153 112.8927964 -152.63449103 116.01123828 -157.4375 119.125 C-158.12908203 119.57423828 -158.82066406 120.02347656 -159.53320312 120.48632812 C-161.35138078 121.66407305 -163.17491052 122.83300848 -165 124 C-165.91910156 124.59554687 -166.83820313 125.19109375 -167.78515625 125.8046875 C-170 127 -170 127 -173 127 C-174.45565524 120.42155803 -173.40188114 114.63895493 -172.25 108.0625 C-172.06171631 106.9480249 -171.87343262 105.8335498 -171.67944336 104.68530273 C-171.1297244 101.4550316 -170.56524453 98.22758279 -170 95 C-169.7452297 93.47931117 -169.49119949 91.95849795 -169.23828125 90.4375 C-166.53585204 74.94148976 -161.94471963 60.42685907 -156.375 45.75 C-156.13330078 45.11244781 -155.89160156 44.47489563 -155.64257812 43.81802368 C-153.32632406 37.73422781 -150.97148065 31.79705149 -148 26 C-147.38716089 24.74454265 -146.77617709 23.488176 -146.16796875 22.23046875 C-138.10357051 5.70473052 -138.10357051 5.70473052 -134 1 C-133.34 1 -132.68 1 -132 1 C-133.63494935 6.07694797 -135.39936627 11.04533498 -137.375 16 C-147.99456082 43.53454992 -151.97099644 72.81465981 -155 102 C-145.80220134 96.99148494 -145.80220134 96.99148494 -137.0625 91.25 C-134.41844285 89.3074274 -131.74898277 87.71314559 -128.8972168 86.10595703 C-127.03141462 85.01831273 -125.22948714 83.86903775 -123.4296875 82.67578125 C-122.84316406 82.28712891 -122.25664062 81.89847656 -121.65234375 81.49804688 C-120.45662281 80.70046159 -119.26395211 79.89828641 -118.07421875 79.09179688 C-111.78828446 74.94974084 -111.78828446 74.94974084 -108 75 C-105.68359375 76.73046875 -105.68359375 76.73046875 -103.4375 79.1875 C-102.32181641 80.38439453 -102.32181641 80.38439453 -101.18359375 81.60546875 C-100.46300781 82.39566406 -99.74242187 83.18585938 -99 84 C-98.24847656 84.71800781 -97.49695313 85.43601562 -96.72265625 86.17578125 C-95 88 -95 88 -95 90 C-94.34 90 -93.68 90 -93 90 C-93 90.66 -93 91.32 -93 92 C-91.35 92.66 -89.7 93.32 -88 94 C-87.979375 93.175 -87.95875 92.35 -87.9375 91.5 C-85.67970161 83.070886 -78.14449065 78.276974 -71 74 C-71.85341902 77.68978223 -73.13572439 81.14697947 -74.4765625 84.68359375 C-75.09596408 87.42467684 -74.71239128 89.30716096 -74 92 C-73.10796875 91.98839844 -72.2159375 91.97679687 -71.296875 91.96484375 C-70.12640625 91.95582031 -68.9559375 91.94679688 -67.75 91.9375 C-66.58984375 91.92589844 -65.4296875 91.91429687 -64.234375 91.90234375 C-61.59022872 91.98217908 -59.50173909 92.21356222 -57 93 C-56.6701795 86.81891946 -56.6813611 82.44256779 -60 77 C-60.33 76.01 -60.66 75.02 -61 74 C-54.11186537 77.26764516 -47.36759451 81.94684068 -44 89 C-43.61118532 90.98995836 -43.2681584 92.99022335 -43 95 C-42.60208252 94.57178955 -42.20416504 94.1435791 -41.79418945 93.70239258 C-39.96792411 91.73819579 -38.14022353 89.77533995 -36.3125 87.8125 C-35.68666016 87.13896484 -35.06082031 86.46542969 -34.41601562 85.77148438 C-33.18418097 84.44935817 -31.94615347 83.13297172 -30.70166016 81.82275391 C-29.22571065 80.24177269 -27.8152357 78.60014989 -26.41796875 76.94921875 C-24 75 -24 75 -21.25 74.83203125 C-16.69004297 76.47076581 -12.99025194 78.96948519 -9 81.6875 C-7.23519261 82.86320737 -5.46953386 84.03763758 -3.703125 85.2109375 C-2.78080078 85.82678711 -1.85847656 86.44263672 -0.90820312 87.07714844 C4.10157903 90.38952623 9.17689664 93.59829113 14.25 96.8125 C15.22066406 97.42891357 16.19132813 98.04532715 17.19140625 98.68041992 C19.46031399 100.12126663 21.72984116 101.56112566 24 103 C23.81630859 101.85857544 23.81630859 101.85857544 23.62890625 100.6940918 C22.78307442 95.41185328 22.00374295 90.13651448 21.375 84.82421875 C18.27453225 58.90412758 12.39700326 33.5961882 2.96777344 9.22851562 C1.79168739 6.18102769 0.67884165 3.20025349 0 0 Z M-38 125 C-37 127 -37 127 -37 127 Z " fill="#ECECEC" transform="translate(262,160)"/>
<path d="M0 0 C0.66 0 1.32 0 2 0 C1.54716103 4.07555069 0.79628568 7.81914074 -0.375 11.75 C-2.71354354 20.00368309 -3.77639018 28.52400752 -5 37 C-5.15662109 38.07056641 -5.31324219 39.14113281 -5.47460938 40.24414062 C-7.99698899 58.27587296 -8.24386981 76.05618988 -8.125 94.25 C-8.11377969 96.95311915 -8.10568273 99.65624472 -8.09765625 102.359375 C-8.07587713 108.90633125 -8.04261997 115.45314793 -8 122 C-4.24835571 120.56506978 -1.40843732 118.99347454 1.765625 116.515625 C2.65636719 115.82726562 3.54710938 115.13890625 4.46484375 114.4296875 C5.84349609 113.35074219 5.84349609 113.35074219 7.25 112.25 C13.05175474 107.73108689 18.84106515 103.3119518 25.01855469 99.31542969 C27.06340476 97.99498893 27.06340476 97.99498893 29.12988281 96.33300781 C31 95 31 95 33 95 C33 94.34 33 93.68 33 93 C34.7386833 91.65758904 36.54627031 90.40439544 38.375 89.1875 C39.56250831 88.38735801 40.74862595 87.58514955 41.93359375 86.78125 C42.58183105 86.34167969 43.23006836 85.90210938 43.89794922 85.44921875 C48.57119198 82.22734081 53.14152942 78.85923065 57.72998047 75.51831055 C59.16435202 74.47661926 60.60296265 73.44073208 62.04638672 72.41162109 C63.28126489 71.51933597 64.49938081 70.60294541 65.69189453 69.65478516 C67.22265625 68.48828125 67.22265625 68.48828125 70 67 C72.5625 67.55859375 72.5625 67.55859375 75 69 C75.825 69.48597656 76.65 69.97195313 77.5 70.47265625 C79.1678469 71.53330264 80.83451395 72.59580657 82.5 73.66015625 C85.0467065 75.02503177 87.19094706 75.4488261 90 76 C91.3125 78.0625 91.3125 78.0625 92 80 C91.195625 80.2475 90.39125 80.495 89.5625 80.75 C86.828919 81.72238859 86.828919 81.72238859 86.1875 84.125 C86.125625 84.74375 86.06375 85.3625 86 86 C80 84 80 84 77.984375 82.91796875 C75.52545815 81.73715796 73.73334333 81.13471167 71 81 C67.43286389 82.61411473 64.63777554 84.98844397 61.69140625 87.54296875 C59.79131532 89.17976764 57.8529672 90.76271449 55.90625 92.34375 C52.23178951 95.33446563 48.58306871 98.35463834 44.94189453 101.38574219 C40.65137272 104.95236655 36.32390243 108.47399544 32 112 C31.38237793 112.50418457 30.76475586 113.00836914 30.12841797 113.52783203 C16.21256506 124.88383463 16.21256506 124.88383463 9.12109375 130.33984375 C6.62939035 132.29007201 4.19078824 134.29893725 1.75 136.3125 C-3.43099636 140.57405193 -8.72194371 144.66993494 -14.0546875 148.73828125 C-15.98183469 150.21814627 -17.8657213 151.75656513 -19.6953125 153.35546875 C-20.45585938 153.89816406 -21.21640625 154.44085938 -22 155 C-22.99 154.67 -23.98 154.34 -25 154 C-30.44164063 137.67507811 -25.80806801 112.7798419 -24 96 C-23.79866455 94.12393066 -23.79866455 94.12393066 -23.59326172 92.20996094 C-17.49792533 36.43963023 -17.49792533 36.43963023 -6 13 C-5.19294674 11.25238096 -4.38607887 9.50467137 -3.58374023 7.75488281 C-2.39634039 5.16659455 -1.19788868 2.58344658 0 0 Z " fill="#ECECEC" transform="translate(80,189)"/>
<path d="M0 0 C0.66 0 1.32 0 2 0 C24.49555966 37.51207611 37.55375396 109.13500914 27.4375 152.33984375 C27.293125 152.88769531 27.14875 153.43554688 27 154 C23.40142046 154 21.90548882 153.04169485 19 151 C19 150.34 19 149.68 19 149 C18.29746094 148.77183594 17.59492188 148.54367187 16.87109375 148.30859375 C13.42522093 146.73802587 10.86413768 144.55045078 8.0625 142.0625 C3.42534625 138.03918531 -1.27834144 134.14358558 -6.125 130.375 C-11.14597588 126.46232859 -16.10809608 122.49068198 -21.0234375 118.4453125 C-25.35954029 114.88310732 -29.71919441 111.35005526 -34.07739258 107.81494141 C-37.13391663 105.33423129 -40.18762904 102.85073806 -43.22265625 100.34375 C-47.13380981 97.11583785 -51.00649163 93.93590217 -55.1875 91.0625 C-56.115625 90.381875 -57.04375 89.70125 -58 89 C-58 88.34 -58 87.68 -58 87 C-59.0828125 86.62875 -59.0828125 86.62875 -60.1875 86.25 C-63 85 -63 85 -65.4375 82.8125 C-67.86807918 80.72329815 -67.86807918 80.72329815 -70.875 81 C-74.65273207 82.20887426 -77.59466806 83.96989827 -81 86 C-81.66 86 -82.32 86 -83 86 C-83 86.66 -83 87.32 -83 88 C-85.475 88.495 -85.475 88.495 -88 89 C-88 88.34 -88 87.68 -88 87 C-86.02 86.505 -86.02 86.505 -84 86 C-83.896875 85.38125 -83.79375 84.7625 -83.6875 84.125 C-83 82 -83 82 -80 80 C-77.8125 79.375 -77.8125 79.375 -76 79 C-76 78.34 -76 77.68 -76 77 C-78.77260299 75.06201737 -78.77260299 75.06201737 -81 74 C-79.54462432 73.16151196 -78.08559627 72.32936066 -76.625 71.5 C-75.40683594 70.80390625 -75.40683594 70.80390625 -74.1640625 70.09375 C-72 69 -72 69 -70 69 C-70 68.34 -70 67.68 -70 67 C-66.58010704 68.25933231 -63.76747625 69.68642419 -60.8125 71.8125 C-59.94753906 72.43125 -59.08257812 73.05 -58.19140625 73.6875 C-57.13824219 74.450625 -56.08507812 75.21375 -55 76 C-53.61345562 77.00024176 -52.22672281 78.00022235 -50.83984375 79 C-47.73743521 81.23792922 -44.63768634 83.47949058 -41.5390625 85.72265625 C-37.58152012 88.58476288 -33.60623052 91.42099498 -29.625 94.25 C-25.45724365 97.21551894 -21.33285059 100.23078675 -17.25 103.3125 C-12.03904471 107.24184196 -6.78125286 111.10315851 -1.5 114.9375 C-0.72172852 115.50573486 0.05654297 116.07396973 0.85839844 116.65942383 C1.59606445 117.1933374 2.33373047 117.72725098 3.09375 118.27734375 C3.75052734 118.75421631 4.40730469 119.23108887 5.08398438 119.72241211 C6.9957254 120.99714972 8.93865374 121.99122441 11 123 C11.02514475 116.95752245 11.04306495 110.91507684 11.05493164 104.87255859 C11.05989044 102.82665475 11.06665952 100.7807543 11.07543945 98.73486328 C11.15412129 79.89750497 10.72918299 61.25634939 8.25 42.5625 C8.16551605 41.91032501 8.0810321 41.25815002 7.99398804 40.58621216 C6.54728529 29.51106506 4.34995047 18.75502438 1.48681641 7.96435547 C0.83447478 5.33208832 0.39054586 2.68232043 0 0 Z " fill="#E1E1E1" transform="translate(310,189)"/>
<path d="M0 0 C6.77827068 2.25942356 9.93826454 12.65432065 13.0625 18.8125 C16.01978165 24.73609636 18.5755809 30.72187364 20.859375 36.94140625 C21.96379899 39.90292676 23.18062317 42.78793288 24.4375 45.6875 C32.59929651 65.28604586 36.88120116 85.54603854 40.3125 106.4375 C40.48410645 107.47334229 40.65571289 108.50918457 40.83251953 109.57641602 C41.7039084 115.12595465 42.18075383 120.383242 42 126 C40.515 126.495 40.515 126.495 39 127 C36.53009144 125.75456732 34.26886331 124.46893201 31.9375 123 C31.2671875 122.58790283 30.596875 122.17580566 29.90625 121.7512207 C25.20582003 118.83431521 20.65560063 115.73751383 16.1640625 112.5078125 C13.21404888 110.45238785 10.1574361 108.71599788 7 107 C7 106.34 7 105.68 7 105 C6.11683105 104.73719238 5.23366211 104.47438477 4.32373047 104.20361328 C1.08162609 103.02955903 -1.33761637 101.67198888 -4.1796875 99.7421875 C-5.1078125 99.11699219 -6.0359375 98.49179687 -6.9921875 97.84765625 C-7.94351563 97.19667969 -8.89484375 96.54570312 -9.875 95.875 C-10.84953125 95.21628906 -11.8240625 94.55757813 -12.828125 93.87890625 C-15.22305854 92.25880415 -17.61342751 90.63238252 -20 89 C-27.11773074 92.38066753 -32.14454728 98.9306841 -37 105 C-35.02 104.505 -35.02 104.505 -33 104 C-33.99 105.98 -34.98 107.96 -36 110 C-37.98 110 -39.96 110 -42 110 C-41.67 108.35 -41.34 106.7 -41 105 C-41.99 105 -42.98 105 -44 105 C-43.67 104.401875 -43.34 103.80375 -43 103.1875 C-41.79212012 100.94613529 -41.79212012 100.94613529 -42 98 C-43.98 98.495 -43.98 98.495 -46 99 C-44.86860469 95.60581406 -43.45745344 94.67330821 -40.734375 92.5078125 C-38.83850879 90.85960449 -37.25705027 89.09654963 -35.625 87.1875 C-34.41759928 85.79085987 -33.20922359 84.39506216 -32 83 C-31.33613281 82.23171875 -30.67226562 81.4634375 -29.98828125 80.671875 C-29.31152344 79.93453125 -28.63476562 79.1971875 -27.9375 78.4375 C-27.02291016 77.41462891 -27.02291016 77.41462891 -26.08984375 76.37109375 C-24 75 -24 75 -21.31640625 74.9296875 C-16.66314867 76.43144554 -13.0219116 78.94791978 -9 81.6875 C-7.23519261 82.86320737 -5.46953386 84.03763758 -3.703125 85.2109375 C-2.78080078 85.82678711 -1.85847656 86.44263672 -0.90820312 87.07714844 C4.10157903 90.38952623 9.17689664 93.59829113 14.25 96.8125 C15.22066406 97.42891357 16.19132812 98.04532715 17.19140625 98.68041992 C19.46031399 100.12126663 21.72984116 101.56112566 24 103 C23.87753906 102.23905029 23.75507813 101.47810059 23.62890625 100.6940918 C22.78307442 95.41185328 22.00374295 90.13651448 21.375 84.82421875 C18.27453225 58.90412758 12.39700326 33.5961882 2.96777344 9.22851562 C1.79168739 6.18102769 0.67884165 3.20025349 0 0 Z " fill="#DFDFDF" transform="translate(262,160)"/>
<path d="M0 0 C0.66 0 1.32 0 2 0 C0.36505065 5.07694797 -1.39936627 10.04533498 -3.375 15 C-13.99456082 42.53454992 -17.97099644 71.81465981 -21 101 C-11.80220134 95.99148494 -11.80220134 95.99148494 -3.0625 90.25 C-0.41844285 88.3074274 2.25101723 86.71314559 5.1027832 85.10595703 C6.96858538 84.01831273 8.77051286 82.86903775 10.5703125 81.67578125 C11.15683594 81.28712891 11.74335938 80.89847656 12.34765625 80.49804688 C13.54337719 79.70046159 14.73604789 78.89828641 15.92578125 78.09179688 C22.21171554 73.94974084 22.21171554 73.94974084 26 74 C28.31640625 75.73046875 28.31640625 75.73046875 30.5625 78.1875 C31.67818359 79.38439453 31.67818359 79.38439453 32.81640625 80.60546875 C33.53699219 81.39566406 34.25757813 82.18585938 35 83 C35.75152344 83.71800781 36.50304687 84.43601562 37.27734375 85.17578125 C39 87 39 87 39 89 C39.66 89 40.32 89 41 89 C41 89.66 41 90.32 41 91 C42.65 91.66 44.3 92.32 46 93 C46.185625 91.5459375 46.185625 91.5459375 46.375 90.0625 C46.58125 89.051875 46.7875 88.04125 47 87 C47.66 86.67 48.32 86.34 49 86 C49 89.96 49 93.92 49 98 C47.35 97.34 45.7 96.68 44 96 C44 96.66 44 97.32 44 98 C43.195625 98.309375 42.39125 98.61875 41.5625 98.9375 C39.10919595 99.76335345 39.10919595 99.76335345 38 101 C36.86800647 100.0919838 35.74467637 99.17316174 34.625 98.25 C33.99851562 97.73953125 33.37203125 97.2290625 32.7265625 96.703125 C30.91010085 94.9113212 30.0941761 93.27874066 29 91 C27.04978917 89.77472052 27.04978917 89.77472052 25 89 C24.01 88.505 24.01 88.505 23 88 C20.45768796 89.46600475 18.05513715 90.98815403 15.625 92.625 C14.07562681 93.64859793 12.52614311 94.6720286 10.9765625 95.6953125 C10.16219727 96.23704102 9.34783203 96.77876953 8.50878906 97.33691406 C4.3587338 100.08800169 0.17779404 102.79130698 -4 105.5 C-5.67851552 106.59094569 -7.35690132 107.68209099 -9.03515625 108.7734375 C-13.83453153 111.8927964 -18.63449103 115.01123828 -23.4375 118.125 C-24.12908203 118.57423828 -24.82066406 119.02347656 -25.53320312 119.48632812 C-27.35138078 120.66407305 -29.17491052 121.83300848 -31 123 C-32.37865234 123.89332031 -32.37865234 123.89332031 -33.78515625 124.8046875 C-36 126 -36 126 -39 126 C-40.45565524 119.42155803 -39.40188114 113.63895493 -38.25 107.0625 C-38.06171631 105.9480249 -37.87343262 104.8335498 -37.67944336 103.68530273 C-37.1297244 100.4550316 -36.56524453 97.22758279 -36 94 C-35.7452297 92.47931117 -35.49119949 90.95849795 -35.23828125 89.4375 C-32.53585204 73.94148976 -27.94471963 59.42685907 -22.375 44.75 C-22.13330078 44.11244781 -21.89160156 43.47489563 -21.64257812 42.81802368 C-19.32632406 36.73422781 -16.97148065 30.79705149 -14 25 C-13.38716089 23.74454265 -12.77617709 22.488176 -12.16796875 21.23046875 C-4.10357051 4.70473052 -4.10357051 4.70473052 0 0 Z " fill="#D6D6D6" transform="translate(128,161)"/>
<path d="M0 0 C0.804375 0.47566406 1.60875 0.95132812 2.4375 1.44140625 C3.2625 1.92738281 4.0875 2.41335938 4.9375 2.9140625 C6.6053469 3.97470889 8.27201395 5.03721282 9.9375 6.1015625 C12.4842065 7.46643802 14.62844706 7.89023235 17.4375 8.44140625 C18.75 10.50390625 18.75 10.50390625 19.4375 12.44140625 C18.633125 12.68890625 17.82875 12.93640625 17 13.19140625 C14.266419 14.16379484 14.266419 14.16379484 13.625 16.56640625 C13.5321875 17.49453125 13.5321875 17.49453125 13.4375 18.44140625 C7.4375 16.44140625 7.4375 16.44140625 5.421875 15.359375 C2.96295815 14.17856421 1.17084333 13.57611792 -1.5625 13.44140625 C-5.12359326 15.05278661 -7.91630241 17.42117049 -10.85791016 19.97119141 C-12.79893106 21.64532889 -14.776804 23.26878813 -16.76171875 24.890625 C-19.67153129 27.26893458 -22.56523944 29.66468524 -25.44921875 32.07421875 C-29.38494364 35.33716209 -33.44284946 38.4153156 -37.5625 41.44140625 C-39.37332059 38.16272351 -39.51805694 37.02474478 -38.5625 33.44140625 C-39.2225 32.78140625 -39.8825 32.12140625 -40.5625 31.44140625 C-42.53786745 31.78927333 -42.53786745 31.78927333 -44.5625 32.44140625 C-45.5525 32.44140625 -46.5425 32.44140625 -47.5625 32.44140625 C-41.8125 27.44140625 -41.8125 27.44140625 -39.5625 27.44140625 C-39.5625 26.78140625 -39.5625 26.12140625 -39.5625 25.44140625 C-37.8238167 24.09899529 -36.01622969 22.84580169 -34.1875 21.62890625 C-32.99999169 20.82876426 -31.81387405 20.0265558 -30.62890625 19.22265625 C-29.65655029 18.56330078 -29.65655029 18.56330078 -28.66455078 17.890625 C-23.99130802 14.66874706 -19.42097058 11.3006369 -14.83251953 7.9597168 C-13.39814798 6.91802551 -11.95953735 5.88213833 -10.51611328 4.85302734 C-9.28123511 3.96074222 -8.06311919 3.04435166 -6.87060547 2.09619141 C-3.2034705 -0.6983175 -3.2034705 -0.6983175 0 0 Z " fill="#D5D5D5" transform="translate(152.5625,256.55859375)"/>
<path d="M0 0 C4.94027612 1.61619242 8.89652382 4.3877709 13.1796875 7.2890625 C14.03111328 7.85431641 14.88253906 8.41957031 15.75976562 9.00195312 C18.3020815 10.69231243 20.83491082 12.39621173 23.3671875 14.1015625 C25.07879968 15.24442977 26.79100224 16.38641356 28.50390625 17.52734375 C29.24729248 18.02274658 29.99067871 18.51814941 30.7565918 19.02856445 C31.28808838 19.38265381 31.81958496 19.73674316 32.3671875 20.1015625 C31.3771875 20.5965625 31.3771875 20.5965625 30.3671875 21.1015625 C29.3771875 20.7715625 28.3871875 20.4415625 27.3671875 20.1015625 C27.0371875 20.7615625 26.7071875 21.4215625 26.3671875 22.1015625 C25.7071875 22.1015625 25.0471875 22.1015625 24.3671875 22.1015625 C24.3671875 24.0815625 24.3671875 26.0615625 24.3671875 28.1015625 C20.91763416 26.82355734 17.98628721 25.34037813 14.94140625 23.28125 C14.14541016 22.74628906 13.34941406 22.21132813 12.52929688 21.66015625 C11.71267578 21.10457031 10.89605469 20.54898438 10.0546875 19.9765625 C9.21873047 19.41324219 8.38277344 18.84992188 7.52148438 18.26953125 C5.46719698 16.88435461 3.41591712 15.49494031 1.3671875 14.1015625 C-5.75054324 17.48223003 -10.77735978 24.0322466 -15.6328125 30.1015625 C-14.3128125 29.7715625 -12.9928125 29.4415625 -11.6328125 29.1015625 C-12.6228125 31.0815625 -13.6128125 33.0615625 -14.6328125 35.1015625 C-16.6128125 35.1015625 -18.5928125 35.1015625 -20.6328125 35.1015625 C-20.3028125 33.4515625 -19.9728125 31.8015625 -19.6328125 30.1015625 C-20.6228125 30.1015625 -21.6128125 30.1015625 -22.6328125 30.1015625 C-22.1378125 29.204375 -22.1378125 29.204375 -21.6328125 28.2890625 C-20.42493262 26.04769779 -20.42493262 26.04769779 -20.6328125 23.1015625 C-21.9528125 23.4315625 -23.2728125 23.7615625 -24.6328125 24.1015625 C-23.50141719 20.70737656 -22.09026594 19.77487071 -19.3671875 17.609375 C-17.47132129 15.96116699 -15.88986277 14.19811213 -14.2578125 12.2890625 C-13.05041178 10.89242237 -11.84203609 9.49662466 -10.6328125 8.1015625 C-9.96894531 7.33328125 -9.30507812 6.565 -8.62109375 5.7734375 C-7.94433594 5.03609375 -7.26757812 4.29875 -6.5703125 3.5390625 C-5.96058594 2.85714844 -5.35085937 2.17523438 -4.72265625 1.47265625 C-2.6328125 0.1015625 -2.6328125 0.1015625 0 0 Z " fill="#D6D6D6" transform="translate(240.6328125,234.8984375)"/>
<path d="M0 0 C0.33 0 0.66 0 1 0 C1.18451025 11.52164009 1.18451025 11.52164009 0 17 C0.99 17.33 1.98 17.66 3 18 C3 19.65 3 21.3 3 23 C5.66846219 21.6657689 5.73424202 20.52091585 6.7265625 17.74609375 C7.0359375 16.89208984 7.3453125 16.03808594 7.6640625 15.15820312 C8.13972656 13.81145508 8.13972656 13.81145508 8.625 12.4375 C8.94984375 11.53580078 9.2746875 10.63410156 9.609375 9.70507812 C10.41271054 7.47227787 11.20925498 5.23728377 12 3 C13.27182952 6.81548856 12.49118147 8.05589991 11.0859375 11.77734375 C10.65410156 12.93169922 10.22226562 14.08605469 9.77734375 15.27539062 C9.31457031 16.48388672 8.85179687 17.69238281 8.375 18.9375 C7.93542969 20.11119141 7.49585938 21.28488281 7.04296875 22.49414062 C2.69509171 34.0268526 -1.96877976 45.2642748 -7.5625 56.25 C-8.03107422 57.178125 -8.49964844 58.10625 -8.98242188 59.0625 C-9.89310618 60.86603702 -10.80530665 62.6688095 -11.71923828 64.47070312 C-13.49307273 67.97373875 -15.247299 71.48634999 -17 75 C-17.66 75 -18.32 75 -19 75 C-19.2475 75.845625 -19.495 76.69125 -19.75 77.5625 C-21.13973627 81.38427474 -22.91120838 84.51868063 -25 88 C-25.66 88 -26.32 88 -27 88 C-25.59405355 83.67516607 -24.17158745 79.36593895 -22.52734375 75.125 C-13.08851539 50.75131664 -6.27350487 25.34407342 0 0 Z " fill="#CACACA" transform="translate(262,502)"/>
<path d="M0 0 C1.57188748 2.98151001 2.75178331 5.97053966 3.84765625 9.15625 C7.5198988 19.67944164 11.27338496 30.09180802 15.875 40.25 C16.24375244 41.06404297 16.61250488 41.87808594 16.99243164 42.71679688 C18.4596475 45.89199902 19.95273525 48.92143548 21.7578125 51.921875 C23 54 23 54 23 56 C22.34 56 21.68 56 21 56 C19.38452061 54.16159056 17.90445032 52.32768994 16.4375 50.375 C15.99567383 49.79177979 15.55384766 49.20855957 15.09863281 48.60766602 C7.83766251 38.89398037 0.38540509 28.36391927 -4 17 C-3.67 16.34 -3.34 15.68 -3 15 C-2.34 15.33 -1.68 15.66 -1 16 C-0.34 14.68 0.32 13.36 1 12 C1.66 12 2.32 12 3 12 C1.13433512 8.37206002 1.13433512 8.37206002 -2 6 C-1.34 4.02 -0.68 2.04 0 0 Z " fill="#C0C0C0" transform="translate(83,480)"/>
<path d="M0 0 C3.5754296 1.69832906 6.82502553 3.79301436 10.15625 5.921875 C12.7029565 7.28675052 14.84719706 7.71054485 17.65625 8.26171875 C18.96875 10.32421875 18.96875 10.32421875 19.65625 12.26171875 C18.851875 12.50921875 18.0475 12.75671875 17.21875 13.01171875 C14.485169 13.98410734 14.485169 13.98410734 13.84375 16.38671875 C13.7509375 17.31484375 13.7509375 17.31484375 13.65625 18.26171875 C7.65625 16.26171875 7.65625 16.26171875 5.4296875 15.390625 C0.61636516 13.49986827 0.61636516 13.49986827 -4.40625 14.07421875 C-5.045625 14.46609375 -5.685 14.85796875 -6.34375 15.26171875 C-6.611875 14.62234375 -6.88 13.98296875 -7.15625 13.32421875 C-8.23042752 10.93040189 -8.23042752 10.93040189 -11.34375 10.26171875 C-12.03125 8.19921875 -12.03125 8.19921875 -12.34375 6.26171875 C-3.46804731 -1.0924349 -3.46804731 -1.0924349 0 0 Z " fill="#CFCFCF" transform="translate(152.34375,256.73828125)"/>
<path d="M0 0 C0.144375 0.598125 0.28875 1.19625 0.4375 1.8125 C0.8872439 3.56150404 1.42892341 5.28677023 2 7 C2.66 6.01 3.32 5.02 4 4 C4.99 4 5.98 4 7 4 C8.70532323 2.05990478 8.70532323 2.05990478 10 0 C9.42010684 3.51881798 8.51384682 6.31648954 6.85546875 9.46875 C6.42556641 10.28730469 5.99566406 11.10585938 5.55273438 11.94921875 C5.10220703 12.79097656 4.65167969 13.63273437 4.1875 14.5 C3.74857422 15.34175781 3.30964844 16.18351562 2.85742188 17.05078125 C0.55158346 21.40206622 -1.84352324 25.19804148 -5 29 C-5.33 29.99 -5.66 30.98 -6 32 C-7.66666667 33.66666667 -9.33333333 35.33333333 -11 37 C-12.60202792 39.11247799 -14.14682446 41.25443809 -15.66796875 43.42578125 C-16.32732422 44.20501953 -16.32732422 44.20501953 -17 45 C-17.66 45 -18.32 45 -19 45 C-17.85087919 41.95180586 -16.54709132 39.01760397 -15.1171875 36.09375 C-9.35372225 24.30690105 -4.48421803 12.32743553 0 0 Z " fill="#CACACA" transform="translate(305,491)"/>
<path d="M0 0 C0.66 0 1.32 0 2 0 C0.36505065 5.07694797 -1.39936627 10.04533498 -3.375 15 C-5.94280923 21.58967912 -7.9202375 28.28252154 -9.86328125 35.07421875 C-11.11098136 39.43022438 -12.52050971 43.71726496 -14 48 C-14.66 47.67 -15.32 47.34 -16 47 C-16.66 48.32 -17.32 49.64 -18 51 C-20 49 -20 49 -20.1171875 47.15234375 C-19.56292957 42.08356561 -18.39708178 38.05752554 -16.03515625 33.53125 C-15.08698713 31.21270815 -14.63726611 29.24750762 -14.1796875 26.80078125 C-13.07136152 21.53311349 -10.75835712 17.30507922 -8.0625 12.6875 C-7.39831055 11.5109082 -7.39831055 11.5109082 -6.72070312 10.31054688 C-2.60414692 3.08970238 -2.60414692 3.08970238 0 0 Z " fill="#DFDFDF" transform="translate(128,161)"/>
<path d="M0 0 C6.77827004 2.25942335 9.93826029 12.65439723 13.0625 18.8125 C17.07994132 26.85975865 21.00744311 35.19080112 23 44 C21.68 43.34 20.36 42.68 19 42 C18.01 42.99 17.02 43.98 16 45 C16.66 45.33 17.32 45.66 18 46 C17.67 47.98 17.34 49.96 17 52 C16.67 52 16.34 52 16 52 C15.76925781 51.030625 15.53851563 50.06125 15.30078125 49.0625 C12.01655108 35.47352678 8.01234859 22.26882254 2.96728516 9.2265625 C1.79105919 6.17981596 0.67870473 3.19960801 0 0 Z " fill="#8E8E8E" transform="translate(262,160)"/>
<path d="M0 0 C0.99 0.33 1.98 0.66 3 1 C2.979375 1.7425 2.95875 2.485 2.9375 3.25 C2.85390784 5.9150678 2.85390784 5.9150678 3.69921875 7.9609375 C4 10 4 10 2.7421875 11.7109375 C2.12601563 12.26007813 1.50984375 12.80921875 0.875 13.375 C-2.39259781 16.40685929 -5.20656219 19.52936514 -8 23 C-6.68 22.67 -5.36 22.34 -4 22 C-4.99 23.98 -5.98 25.96 -7 28 C-8.98 28 -10.96 28 -13 28 C-12.67 26.35 -12.34 24.7 -12 23 C-12.99 23 -13.98 23 -15 23 C-14.505 22.1028125 -14.505 22.1028125 -14 21.1875 C-12.79212012 18.94613529 -12.79212012 18.94613529 -13 16 C-14.32 16.33 -15.64 16.66 -17 17 C-15.87109087 13.61327261 -15.2708534 13.24760829 -12.4375 11.3125 C-7.80841192 7.98926679 -3.92578857 4.11372526 0 0 Z " fill="#E0E0E0" transform="translate(233,242)"/>
<path d="M0 0 C5.49911177 1.28520317 8.93693628 5.72159489 12.7578125 9.64453125 C14.11798944 10.84898131 15.49101411 12.03926479 16.8828125 13.20703125 C18.3059375 14.41359375 18.3059375 14.41359375 19.7578125 15.64453125 C18.4378125 16.63453125 17.1178125 17.62453125 15.7578125 18.64453125 C13.7578125 17.64453125 13.7578125 17.64453125 12.7578125 14.64453125 C10.72096538 18.71822549 10.7320866 21.23390989 11.7578125 25.64453125 C9.41535453 23.37305685 7.17821372 21.19011397 5.18359375 18.6015625 C1.36523286 13.71512864 -1.32746134 11.71046765 -7.51953125 10.80078125 C-8.08800781 10.74921875 -8.65648437 10.69765625 -9.2421875 10.64453125 C-9.2421875 10.31453125 -9.2421875 9.98453125 -9.2421875 9.64453125 C-4.7871875 9.14953125 -4.7871875 9.14953125 -0.2421875 8.64453125 C-0.5721875 6.99453125 -0.9021875 5.34453125 -1.2421875 3.64453125 C-4.2121875 3.31453125 -7.1821875 2.98453125 -10.2421875 2.64453125 C-6.57231618 0.19795037 -4.34083947 -0.0696053 0 0 Z " fill="#CDCDCD" transform="translate(238.2421875,274.35546875)"/>
<path d="M0 0 C3.81538304 1.38178737 6.97291881 3.13689962 10.3125 5.4375 C11.19550781 6.03433594 12.07851562 6.63117188 12.98828125 7.24609375 C13.98408203 8.11427734 13.98408203 8.11427734 15 9 C15 9.99 15 10.98 15 12 C14.443125 11.649375 13.88625 11.29875 13.3125 10.9375 C10.37831087 9.74796387 8.95411203 9.91164294 6 11 C4.63979849 12.96758273 4.63979849 12.96758273 4 15 C2.92298828 14.67708984 2.92298828 14.67708984 1.82421875 14.34765625 C-1.69120219 13.91491425 -3.12732065 14.72916992 -6.1875 16.4375 C-10.84468665 19 -10.84468665 19 -13 19 C-13 19.66 -13 20.32 -13 21 C-14.65 21.33 -16.3 21.66 -18 22 C-18 21.34 -18 20.68 -18 20 C-16.68 19.67 -15.36 19.34 -14 19 C-13.896875 18.38125 -13.79375 17.7625 -13.6875 17.125 C-13 15 -13 15 -10 13 C-7.8125 12.375 -7.8125 12.375 -6 12 C-6 11.34 -6 10.68 -6 10 C-8.77260299 8.06201737 -8.77260299 8.06201737 -11 7 C-9.54462432 6.16151196 -8.08559627 5.32936066 -6.625 4.5 C-5.40683594 3.80390625 -5.40683594 3.80390625 -4.1640625 3.09375 C-2 2 -2 2 0 2 C0 1.34 0 0.68 0 0 Z " fill="#CCCCCC" transform="translate(240,256)"/>
<path d="M0 0 C3.61542079 1.2981034 5.37360764 3.03724028 7.78515625 6 C8.59765625 8.3125 8.59765625 8.3125 8.78515625 10 C8.12515625 10 7.46515625 10 6.78515625 10 C6.12515625 11.32 5.46515625 12.64 4.78515625 14 C3.46515625 14 2.14515625 14 0.78515625 14 C-0.90182457 14.61344757 -2.57450182 15.27095914 -4.21484375 16 C-5.47149353 13.09399739 -6.21484375 11.20395416 -6.21484375 8 C-9.20704643 9.36370299 -11.50510904 10.94908083 -13.96484375 13.125 C-14.5784375 13.66382813 -15.19203125 14.20265625 -15.82421875 14.7578125 C-16.283125 15.16773438 -16.74203125 15.57765625 -17.21484375 16 C-15.53325419 11.7857725 -12.57611593 8.88603957 -9.46484375 5.6875 C-8.69527344 4.84348633 -8.69527344 4.84348633 -7.91015625 3.98242188 C-5.23635534 1.23808099 -3.90856613 0 0 0 Z " fill="#C5C5C5" transform="translate(241.21484375,235)"/>
<path d="M0 0 C1.767104 2.65065601 2.60328989 4.49096799 3.55078125 7.46484375 C3.83501953 8.34221191 4.11925781 9.21958008 4.41210938 10.12353516 C4.70923828 11.05214355 5.00636719 11.98075195 5.3125 12.9375 C7.63065021 20.08594319 10.08600647 26.99795144 13.25 33.8203125 C14 36 14 36 13 39 C10.27118485 35.55894693 8.06037177 31.86088427 5.875 28.0625 C5.51535156 27.45470703 5.15570313 26.84691406 4.78515625 26.22070312 C2.83555207 22.83627789 1.48710925 19.88949355 1 16 C0.34 16 -0.32 16 -1 16 C-1.86366822 14.21289414 -2.71568594 12.4201535 -3.5625 10.625 C-4.03816406 9.62726562 -4.51382813 8.62953125 -5.00390625 7.6015625 C-5.49697266 6.31378906 -5.49697266 6.31378906 -6 5 C-5.67 4.34 -5.34 3.68 -5 3 C-3.02 3.495 -3.02 3.495 -1 4 C-0.67 2.68 -0.34 1.36 0 0 Z " fill="#9E9E9E" transform="translate(143,551)"/>
<path d="M0 0 C0.66 0 1.32 0 2 0 C11.1027027 16.41081081 11.1027027 16.41081081 13 24 C12.67 24.99 12.34 25.98 12 27 C11.34 26.67 10.68 26.34 10 26 C9.11038928 28.93901025 8.98512118 31.09797139 9.4375 34.125 C10.08305876 39.09911301 10.09410387 43.99158277 10 49 C9.67 49 9.34 49 9 49 C8.93530518 48.44352783 8.87061035 47.88705566 8.80395508 47.3137207 C7.31131396 34.7819415 5.19231929 22.63981653 2.0859375 10.40625 C1.21033326 6.95663328 0.51500364 3.5249138 0 0 Z " fill="#909090" transform="translate(310,189)"/>
<path d="M0 0 C0.66 0.33 1.32 0.66 2 1 C2 1.66 2 2.32 2 3 C2.66 3 3.32 3 4 3 C4 3.66 4 4.32 4 5 C6.475 5.99 6.475 5.99 9 7 C9.12375 6.030625 9.2475 5.06125 9.375 4.0625 C9.684375 2.5465625 9.684375 2.5465625 10 1 C10.66 0.67 11.32 0.34 12 0 C12 3.96 12 7.92 12 12 C10.35 11.34 8.7 10.68 7 10 C7 10.66 7 11.32 7 12 C6.195625 12.309375 5.39125 12.61875 4.5625 12.9375 C2.10919595 13.76335345 2.10919595 13.76335345 1 15 C-0.13199353 14.0919838 -1.25532363 13.17316174 -2.375 12.25 C-3.00148437 11.73953125 -3.62796875 11.2290625 -4.2734375 10.703125 C-6.08312318 8.91800519 -7.00117455 7.32050356 -8 5 C-7.01 5 -6.02 5 -5 5 C-4.34 4.34 -3.68 3.68 -3 3 C-2 2 -1 1 0 0 Z " fill="#D7D7D7" transform="translate(165,247)"/>
<path d="M0 0 C3.33980581 -0.43562684 5.34976874 -0.32511563 8.375 1.1875 C10 3 10 3 10.5 5.5 C10 8 10 8 8.5625 9.8125 C3.89853222 11.97385092 -1.19176407 11.60274531 -6 10 C-6 7 -6 7 -4.125 5 C-3.42375 4.34 -2.7225 3.68 -2 3 C-1.34 2.01 -0.68 1.02 0 0 Z " fill="#E5E5E5" transform="translate(139,242)"/>
<path d="M0 0 C0.33 0 0.66 0 1 0 C1 21.78 1 43.56 1 66 C5.15930623 64.33627751 7.44494912 63.08914549 10.8125 60.375 C11.60269531 59.74335938 12.39289063 59.11171875 13.20703125 58.4609375 C13.79871094 57.97882813 14.39039062 57.49671875 15 57 C15.66 57.33 16.32 57.66 17 58 C16.34 59.98 15.68 61.96 15 64 C14.01 63.34 13.02 62.68 12 62 C11.13375 63.2065625 11.13375 63.2065625 10.25 64.4375 C7.89326193 67.1215628 7.34773751 67.49276704 4 68 C2.32639445 68.64905059 0.65882739 69.31405984 -1 70 C-1.02312566 61.02079223 -1.04091623 52.04159463 -1.05181217 43.06236362 C-1.05704051 38.89337172 -1.06413726 34.72440013 -1.07543945 30.55541992 C-1.08627008 26.53542314 -1.09227721 22.51544595 -1.09487724 18.49543571 C-1.09673118 16.95837025 -1.10035119 15.42130591 -1.10573006 13.88424873 C-1.11294284 11.73864513 -1.11399084 9.59312345 -1.11352539 7.44750977 C-1.115746 6.22395279 -1.11796661 5.00039581 -1.12025452 3.73976135 C-1 1 -1 1 0 0 Z " fill="#505050" transform="translate(71,245)"/>
<path d="M0 0 C0.66 0 1.32 0 2 0 C0.29994507 5.27911795 -1.54373113 10.45862404 -3.5625 15.625 C-5.28441521 20.04907733 -6.82388787 24.40247076 -8 29 C-8.6496875 28.0409375 -8.6496875 28.0409375 -9.3125 27.0625 C-10.91239177 24.73253997 -10.91239177 24.73253997 -14 24 C-12.23426202 20.74720688 -10.46152586 17.49827938 -8.6875 14.25 C-7.93823242 12.86941406 -7.93823242 12.86941406 -7.17382812 11.4609375 C-6.68720703 10.57148438 -6.20058594 9.68203125 -5.69921875 8.765625 C-5.25408936 7.94868164 -4.80895996 7.13173828 -4.3503418 6.29003906 C-3.02526417 4.04284541 -1.69677396 1.98322013 0 0 Z " fill="#8B8B8B" transform="translate(128,161)"/>
<path d="M0 0 C0.66 0 1.32 0 2 0 C1.41927831 5.22649518 0.19444839 10.07589835 -1.234375 15.1328125 C-2.36889287 19.38146615 -3.20293896 23.67711601 -4 28 C-4.33 28 -4.66 28 -5 28 C-5.33 26.35 -5.66 24.7 -6 23 C-8.0245738 24.93254772 -9.42105792 26.63158688 -11 29 C-10.48756498 22.97888849 -8.59190816 18.41797624 -6 13 C-4.91486501 10.64666325 -3.83159639 8.29246519 -2.75 5.9375 C-1.83396224 3.95804217 -0.91751482 1.97877362 0 0 Z " fill="#999999" transform="translate(80,189)"/>
<path d="M0 0 C0.45375 0.474375 0.9075 0.94875 1.375 1.4375 C2.93258204 3.09027808 2.93258204 3.09027808 5 4 C4.690625 4.598125 4.38125 5.19625 4.0625 5.8125 C2.89790296 8.08956772 2.89790296 8.08956772 2 11 C0.33333333 12.66666667 -1.33333333 14.33333333 -3 16 C-4.60202792 18.11247799 -6.14682446 20.25443809 -7.66796875 22.42578125 C-8.32732422 23.20501953 -8.32732422 23.20501953 -9 24 C-9.66 24 -10.32 24 -11 24 C-9.71882993 20.72618005 -8.34728693 17.52930256 -6.8359375 14.35546875 C-6.23652344 13.09379883 -6.23652344 13.09379883 -5.625 11.80664062 C-5.2125 10.94232422 -4.8 10.07800781 -4.375 9.1875 C-3.95476562 8.30384766 -3.53453125 7.42019531 -3.1015625 6.50976562 C-2.06907239 4.33918982 -1.0351788 2.16929448 0 0 Z " fill="#BCBCBC" transform="translate(297,512)"/>
<path d="M0 0 C0 3 0 3 -1 6 C0.65 6 2.3 6 4 6 C3.67 8.31 3.34 10.62 3 13 C3.99 13 4.98 13 6 13 C5.01 14.98 4.02 16.96 3 19 C1.02 19 -0.96 19 -3 19 C-2.67 17.35 -2.34 15.7 -2 14 C-2.99 14 -3.98 14 -5 14 C-4.505 13.1028125 -4.505 13.1028125 -4 12.1875 C-2.79212012 9.94613529 -2.79212012 9.94613529 -3 7 C-4.32 7.33 -5.64 7.66 -7 8 C-5.61918777 3.8575633 -3.40174442 2.67796901 0 0 Z " fill="#E6E6E6" transform="translate(223,251)"/>
<path d="M0 0 C0.33 0.99 0.66 1.98 1 3 C0.54625 3.7425 0.0925 4.485 -0.375 5.25 C-2.33146156 8.56093494 -2.71755349 11.18697214 -3 15 C-2.67 15.99 -2.34 16.98 -2 18 C-1.10796875 17.98839844 -0.2159375 17.97679687 0.703125 17.96484375 C1.87359375 17.95582031 3.0440625 17.94679687 4.25 17.9375 C5.41015625 17.92589844 6.5703125 17.91429687 7.765625 17.90234375 C10.40977128 17.98217908 12.49826091 18.21356222 15 19 C15.33 18.34 15.66 17.68 16 17 C16 17.99 16 18.98 16 20 C12.68751813 20.02888146 9.37506833 20.04675799 6.0625 20.0625 C5.11697266 20.07087891 4.17144531 20.07925781 3.19726562 20.08789062 C1.84858398 20.09272461 1.84858398 20.09272461 0.47265625 20.09765625 C-0.77632446 20.10551147 -0.77632446 20.10551147 -2.05053711 20.11352539 C-4 20 -4 20 -5 19 C-5.23192865 17.48530552 -5.41215238 15.96245438 -5.5625 14.4375 C-5.64628906 13.61121094 -5.73007813 12.78492188 -5.81640625 11.93359375 C-5.87699219 11.29550781 -5.93757812 10.65742188 -6 10 C-9.51716303 10 -10.37121748 10.82445585 -13 13 C-11.44533803 8.91667098 -8.74912156 6.91791007 -5.375 4.25 C-4.37210938 3.45078125 -3.36921875 2.6515625 -2.3359375 1.828125 C-1.17964844 0.92320312 -1.17964844 0.92320312 0 0 Z " fill="#A5A5A5" transform="translate(190,234)"/>
<path d="M0 0 C2.3179312 3.4768968 4.1324764 7.080836 6 10.8125 C6.53367187 11.86147461 6.53367187 11.86147461 7.078125 12.93164062 C9.05964751 16.88359504 10.719614 20.75205271 12 25 C11.34 25 10.68 25 10 25 C8.27317815 22.95032466 6.65687285 20.89883729 5.0625 18.75 C4.61970703 18.16347656 4.17691406 17.57695313 3.72070312 16.97265625 C2.86062709 15.83186986 2.00452588 14.68807359 1.15283203 13.54101562 C0.18392871 12.24586151 -0.81310336 10.97181769 -1.81640625 9.703125 C-3 8 -3 8 -3 6 C-1.68 6 -0.36 6 1 6 C0.67 4.02 0.34 2.04 0 0 Z " fill="#ACACAC" transform="translate(94,511)"/>
<path d="M0 0 C3.85914066 5.78871099 4.26679513 10.19672424 4 17 C3.34 16.67 2.68 16.34 2 16 C2.33 15.34 2.66 14.68 3 14 C2.01 14.33 1.02 14.66 0 15 C0 14.34 0 13.68 0 13 C-0.99 12.67 -1.98 12.34 -3 12 C-3.94921875 9.93359375 -3.94921875 9.93359375 -4.6875 7.4375 C-4.93886719 6.61121094 -5.19023437 5.78492188 -5.44921875 4.93359375 C-5.63097656 4.29550781 -5.81273437 3.65742187 -6 3 C-3.525 3.495 -3.525 3.495 -1 4 C-0.67 2.68 -0.34 1.36 0 0 Z " fill="#C2C2C2" transform="translate(143,551)"/>
<path d="M0 0 C0 3.86695678 -1.41909971 6.5088452 -3 10 C-3.66 10 -4.32 10 -5 10 C-5.2475 10.845625 -5.495 11.69125 -5.75 12.5625 C-7.13973627 16.38427474 -8.91120838 19.51868063 -11 23 C-11.66 23 -12.32 23 -13 23 C-10.60309494 15.55697903 -7.84737559 8.28162848 -5 1 C-4.34 1.33 -3.68 1.66 -3 2 C-2.01 1.34 -1.02 0.68 0 0 Z " fill="#BBBBBB" transform="translate(248,567)"/>
<path d="M0 0 C0.33 1.32 0.66 2.64 1 4 C1.33 4.99 1.66 5.98 2 7 C2.66 6.01 3.32 5.02 4 4 C4.99 4 5.98 4 7 4 C8.70532323 2.05990478 8.70532323 2.05990478 10 0 C9.39733215 4.50727647 7.63400206 7.8587963 5.4375 11.8125 C4.9434668 12.7087207 4.9434668 12.7087207 4.43945312 13.62304688 C3.63226733 15.08533998 2.81695083 16.5431399 2 18 C0.64560332 15.29120665 0.93498549 12.99066732 1 10 C-0.32 10 -1.64 10 -3 10 C-2.01 6.7 -1.02 3.4 0 0 Z " fill="#A8A8A8" transform="translate(305,491)"/>
<path d="M0 0 C2.3223428 2.8762349 3.86565842 5.63780422 5.25 9.0625 C5.60578125 9.91972656 5.9615625 10.77695313 6.328125 11.66015625 C7 14 7 14 6 17 C5.67 16.34 5.34 15.68 5 15 C3.02463255 15.34786708 3.02463255 15.34786708 1 16 C0.67 16.66 0.34 17.32 0 18 C0.66 18.33 1.32 18.66 2 19 C1.67 20.98 1.34 22.96 1 25 C0.67 25 0.34 25 0 25 C-0.99 20.71 -1.98 16.42 -3 12 C-2.34 12 -1.68 12 -1 12 C-1 11.34 -1 10.68 -1 10 C-0.01 10 0.98 10 2 10 C1.505 8.63875 1.505 8.63875 1 7.25 C0 4 0 4 0 0 Z " fill="#949494" transform="translate(278,187)"/>
<path d="M0 0 C0.66 0 1.32 0 2 0 C5.91644371 6.188579 7.98525061 11.7452991 9 19 C8.34 19 7.68 19 7 19 C6.67 19.99 6.34 20.98 6 22 C3.42718118 14.77160428 1.63304408 7.49347179 0 0 Z " fill="#8D8D8D" transform="translate(310,189)"/>
<path d="M0 0 C0.8353125 1.0209375 0.8353125 1.0209375 1.6875 2.0625 C1.06875 2.330625 0.45 2.59875 -0.1875 2.875 C-2.6120233 4.01806848 -2.6120233 4.01806848 -4.3125 7.0625 C-4.3125 7.7225 -4.3125 8.3825 -4.3125 9.0625 C-6.2925 8.4025 -8.2725 7.7425 -10.3125 7.0625 C-9.76526317 3.68787285 -9.2576 1.98015 -7.3125 -0.9375 C-3.84643685 -2.30568282 -2.91701691 -2.44398714 0 0 Z " fill="#B7B7B7" transform="translate(170.3125,265.9375)"/>
<path d="M0 0 C0.9075 0.309375 1.815 0.61875 2.75 0.9375 C5.16563338 1.7272263 7.52780285 2.42949297 10 3 C9.67 3.33 9.34 3.66 9 4 C9.66 4.66 10.32 5.32 11 6 C8.36 6 5.72 6 3 6 C3 5.34 3 4.68 3 4 C2.34 4 1.68 4 1 4 C0.67 2.68 0.34 1.36 0 0 Z M0 5 C5.60240964 8.73493976 5.60240964 8.73493976 6.6875 12.1875 C6.790625 12.785625 6.89375 13.38375 7 14 C5.02 13.34 3.04 12.68 1 12 C0.34 12.66 -0.32 13.32 -1 14 C-1.625 11.1875 -1.625 11.1875 -2 8 C-1.34 7.01 -0.68 6.02 0 5 Z " fill="#989898" transform="translate(219,283)"/>
<path d="M0 0 C0 2 0 2 -2 4.125 C-2.66 4.74375 -3.32 5.3625 -4 6 C-3.01 6.66 -2.02 7.32 -1 8 C-2 10 -2 10 -4.375 11.125 C-7 12 -7 12 -10 12 C-10 12.99 -10 13.98 -10 15 C-10.99 15 -11.98 15 -13 15 C-12.40952677 11.43322251 -11.04264332 9.58466641 -8.625 6.9375 C-8.01914063 6.26589844 -7.41328125 5.59429687 -6.7890625 4.90234375 C-5.90347656 3.96068359 -5.90347656 3.96068359 -5 3 C-4.47148437 2.42378906 -3.94296875 1.84757813 -3.3984375 1.25390625 C-2 0 -2 0 0 0 Z " fill="#F5F5F5" transform="translate(235,242)"/>
<path d="M0 0 C0.66 0 1.32 0 2 0 C2.61875 0.680625 3.2375 1.36125 3.875 2.0625 C4.57625 2.701875 5.2775 3.34125 6 4 C8.21858253 3.86358623 8.21858253 3.86358623 10 3 C12.09230769 7.43076923 12.09230769 7.43076923 11.625 10.3125 C11.41875 10.869375 11.2125 11.42625 11 12 C11.99 11.67 12.98 11.34 14 11 C15.06775224 12.96466413 16.06553465 14.96855359 17 17 C16.67 17.66 16.34 18.32 16 19 C13.51297873 16.40323752 11.03679365 13.79638805 8.5625 11.1875 C7.50192383 10.08051758 7.50192383 10.08051758 6.41992188 8.95117188 C5.74638672 8.23896484 5.07285156 7.52675781 4.37890625 6.79296875 C3.7557251 6.1383667 3.13254395 5.48376465 2.49047852 4.80932617 C1 3 1 3 0 0 Z " fill="#B3B3B3" transform="translate(252,302)"/>
<path d="M0 0 C3.03852705 1.40976705 5.5939595 3.08870228 8.25 5.125 C8.95640625 5.66382813 9.6628125 6.20265625 10.390625 6.7578125 C10.92171875 7.16773438 11.4528125 7.57765625 12 8 C11.67 8.66 11.34 9.32 11 10 C8.4375 10.625 8.4375 10.625 6 11 C6 12.98 6 14.96 6 17 C5.67 17 5.34 17 5 17 C4.89042969 16.33613281 4.78085938 15.67226562 4.66796875 14.98828125 C3.77839831 10.03416944 2.89625691 6.21273732 0 2 C0 1.34 0 0.68 0 0 Z " fill="#999999" transform="translate(201,234)"/>
<path d="M0 0 C1.2065625 0.0309375 1.2065625 0.0309375 2.4375 0.0625 C2.1075 3.0325 1.7775 6.0025 1.4375 9.0625 C0.7775 8.7325 0.1175 8.4025 -0.5625 8.0625 C-1.2225 9.3825 -1.8825 10.7025 -2.5625 12.0625 C-4.5625 10.0625 -4.5625 10.0625 -4.57421875 7.93359375 C-4.46722656 7.13050781 -4.36023438 6.32742187 -4.25 5.5 C-4.15074219 4.69433594 -4.05148438 3.88867188 -3.94921875 3.05859375 C-3.3681349 0.05926196 -3.12049841 0.07610972 0 0 Z " fill="#F5F5F5" transform="translate(112.5625,199.9375)"/>
<path d="M0 0 C0.33 0 0.66 0 1 0 C1 13.2 1 26.4 1 40 C1.99 40.33 2.98 40.66 4 41 C3.67 41.66 3.34 42.32 3 43 C2.01 42.67 1.02 42.34 0 42 C-1.12795692 38.61612923 -1.12941479 36.02707374 -1.1328125 32.4609375 C-1.13410156 31.15769531 -1.13539062 29.85445313 -1.13671875 28.51171875 C-1.13462402 27.83157715 -1.1325293 27.15143555 -1.13037109 26.45068359 C-1.12507308 24.40324298 -1.13029427 22.35602707 -1.13671875 20.30859375 C-1.12997915 13.45442505 -0.94445343 6.79106992 0 0 Z " fill="#656565" transform="translate(55,301)"/>
<path d="M0 0 C0.66 0 1.32 0 2 0 C3.66489182 3.92438786 4.87204037 7.89100419 6 12 C3.625 12.1875 3.625 12.1875 1 12 C-1.23551759 8.64672361 -1.17283528 8.09256343 -0.625 4.3125 C-0.51414062 3.50425781 -0.40328125 2.69601562 -0.2890625 1.86328125 C-0.19367188 1.24839844 -0.09828125 0.63351562 0 0 Z " fill="#DFDFDF" transform="translate(89,505)"/>
<path d="M0 0 C0.99 0.33 1.98 0.66 3 1 C4.52160014 4.6037898 5 7.05220686 5 11 C4.01 11 3.02 11 2 11 C1.67 11.66 1.34 12.32 1 13 C-0.6290678 8.20862412 -1.20577428 4.94367454 0 0 Z " fill="#F6F6F6" transform="translate(275,186)"/>
<path d="M0 0 C0.33 0 0.66 0 1 0 C1 1.65 1 3.3 1 5 C1.66 5 2.32 5 3 5 C3 4.34 3 3.68 3 3 C3.99 3 4.98 3 6 3 C4.51643192 8.68701095 4.51643192 8.68701095 1.9375 10.25 C1.298125 10.4975 0.65875 10.745 0 11 C-0.33 11.66 -0.66 12.32 -1 13 C-2 12 -2 12 -2.1875 9.3125 C-1.99285364 5.87374757 -1.22094153 3.20497153 0 0 Z " fill="#B9B9B9" transform="translate(246,558)"/>
<path d="M0 0 C2.31 0 4.62 0 7 0 C5.030258 2.11043785 3.42601007 3.79308082 0.8125 5.0625 C-1.36058256 5.9194894 -1.36058256 5.9194894 -2 9 C-4.21701147 10.58965571 -6.57862473 11.72327486 -9 13 C-8.33333333 11.66666667 -7.66666667 10.33333333 -7 9 C-6.773125 8.319375 -6.54625 7.63875 -6.3125 6.9375 C-4.23654623 3.87299681 -1.42575671 3.26879878 2 2 C1.34 1.34 0.68 0.68 0 0 Z " fill="#9B9B9B" transform="translate(163,285)"/>
<path d="M0 0 C0.33 0 0.66 0 1 0 C0.979375 1.093125 0.95875 2.18625 0.9375 3.3125 C0.81455548 6.94384191 0.81455548 6.94384191 2 10 C2.89203125 9.98839844 3.7840625 9.97679687 4.703125 9.96484375 C5.87359375 9.95582031 7.0440625 9.94679687 8.25 9.9375 C9.41015625 9.92589844 10.5703125 9.91429687 11.765625 9.90234375 C14.40977128 9.98217908 16.49826091 10.21356222 19 11 C19.33 10.34 19.66 9.68 20 9 C20 9.99 20 10.98 20 12 C16.68751813 12.02888146 13.37506833 12.04675799 10.0625 12.0625 C9.11697266 12.07087891 8.17144531 12.07925781 7.19726562 12.08789062 C5.84858398 12.09272461 5.84858398 12.09272461 4.47265625 12.09765625 C3.64000244 12.10289307 2.80734863 12.10812988 1.94946289 12.11352539 C0 12 0 12 -1 11 C-1.14475933 7.1638778 -1.17661508 3.67692213 0 0 Z " fill="#616161" transform="translate(186,242)"/>
<path d="M0 0 C0.474375 0.495 0.94875 0.99 1.4375 1.5 C2.99969942 3.34626591 2.99969942 3.34626591 6 3 C6.66 2.34 7.32 1.68 8 1 C7.67 2.98 7.34 4.96 7 7 C6.01 7.33 5.02 7.66 4 8 C4 7.34 4 6.68 4 6 C-0.49656104 3.75171948 -4.07872966 3.83317728 -9 4 C-6.31059578 0.90718514 -4.07621501 0 0 0 Z " fill="#696969" transform="translate(200,418)"/>
<path d="M0 0 C2.66793335 2.66793335 3.36340808 5.32631161 4.625 8.875 C5.07101562 10.10992187 5.51703125 11.34484375 5.9765625 12.6171875 C7 16 7 16 7 20 C6.34 20 5.68 20 5 20 C4.896875 19.21625 4.79375 18.4325 4.6875 17.625 C4.22404978 14.66954819 4.22404978 14.66954819 1 13 C0.91032272 10.66839059 0.9222654 8.33203812 1 6 C0.70814937 3.9935269 0.38830401 1.99005807 0 0 Z " fill="#808080" transform="translate(287,210)"/>
<path d="M0 0 C0.66 0.33 1.32 0.66 2 1 C1.34 2.65 0.68 4.3 0 6 C-0.66 6 -1.32 6 -2 6 C-1.34 7.32 -0.68 8.64 0 10 C-2.40921705 12.40921705 -4.94334509 13.53812156 -8 15 C-6.62712658 11.30123909 -4.93644547 8.0485524 -2.875 4.6875 C-2.33617187 3.80449219 -1.79734375 2.92148437 -1.2421875 2.01171875 C-0.83226562 1.34785156 -0.42234375 0.68398438 0 0 Z " fill="#C2C2C2" transform="translate(173,307)"/>
<path d="M0 0 C0.928125 0.20625 1.85625 0.4125 2.8125 0.625 C-0.04056797 2.94972205 -2.72824837 4.3758258 -6.1875 5.625 C-6.1875 6.285 -6.1875 6.945 -6.1875 7.625 C-7.8375 7.955 -9.4875 8.285 -11.1875 8.625 C-11.1875 7.965 -11.1875 7.305 -11.1875 6.625 C-9.8675 6.295 -8.5475 5.965 -7.1875 5.625 C-7.0328125 4.696875 -7.0328125 4.696875 -6.875 3.75 C-5.6454917 -0.05029839 -3.73422285 -0.43932034 0 0 Z " fill="#9B9B9B" transform="translate(233.1875,269.375)"/>
<path d="M0 0 C0.144375 0.598125 0.28875 1.19625 0.4375 1.8125 C1.22893316 4.89029562 1.71542726 6.71542726 4 9 C2.68 9 1.36 9 0 9 C-1.32 14.94 -2.64 20.88 -4 27 C-5.00923144 22.96307423 -4.89629364 21.49592332 -4.00390625 17.578125 C-3.77509766 16.55332031 -3.54628906 15.52851563 -3.31054688 14.47265625 C-2.94026367 12.87744141 -2.94026367 12.87744141 -2.5625 11.25 C-2.31951172 10.17105469 -2.07652344 9.09210938 -1.82617188 7.98046875 C-1.22543705 5.31838893 -0.61644487 2.65847791 0 0 Z " fill="#6A6A6A" transform="translate(66,225)"/>
<path d="M0 0 C0.99 0.33 1.98 0.66 3 1 C3.99 1 4.98 1 6 1 C6.0825 1.78375 6.165 2.5675 6.25 3.375 C6.4975 4.24125 6.745 5.1075 7 6 C7.66 6.309375 8.32 6.61875 9 6.9375 C9.99 7.4634375 9.99 7.4634375 11 8 C11.75 11.125 11.75 11.125 12 14 C10.85807217 12.85807217 9.71677615 11.71550762 8.578125 10.5703125 C7.43198823 9.42984968 6.27413185 8.30112694 5.109375 7.1796875 C4.47515625 6.56351562 3.8409375 5.94734375 3.1875 5.3125 C2.58292969 4.73113281 1.97835938 4.14976562 1.35546875 3.55078125 C0 2 0 2 0 0 Z " fill="#A0A0A0" transform="translate(305,360)"/>
<path d="M0 0 C0.99 0.66 1.98 1.32 3 2 C1.35742342 3.83634696 -0.28882695 5.6691407 -1.9375 7.5 C-2.40607422 8.02464844 -2.87464844 8.54929687 -3.35742188 9.08984375 C-4.55095408 10.4121744 -5.77334179 11.70833939 -7 13 C-7.33 13 -7.66 13 -8 13 C-8.36458333 8.50347222 -8.36458333 8.50347222 -6.6875 6.1875 C-5 5 -5 5 -2 5 C-2 3.68 -2 2.36 -2 1 C-1.34 0.67 -0.68 0.34 0 0 Z " fill="#B5B5B5" transform="translate(135,304)"/>
<path d="M0 0 C0.99 0.33 1.98 0.66 3 1 C3.99 0.67 4.98 0.34 6 0 C6.12375 0.61875 6.2475 1.2375 6.375 1.875 C6.87197356 4.19120832 6.87197356 4.19120832 9 6 C8.625 8.625 8.625 8.625 8 11 C6 10 6 10 5.0625 8.0625 C4.04654078 5.68028507 4.04654078 5.68028507 1 4 C0.3125 1.875 0.3125 1.875 0 0 Z " fill="#E0E0E0" transform="translate(165,259)"/>
<path d="M0 0 C1.96371945 2.94557917 3.29765337 5.75038726 4.6875 9 C5.14511719 10.051875 5.60273438 11.10375 6.07421875 12.1875 C7 15 7 15 6 18 C1.18587355 12.03965297 -0.39025198 7.54487158 0 0 Z " fill="#7B7B7B" transform="translate(150,572)"/>
<path d="M0 0 C2.03144641 0.93446535 4.03533587 1.93224776 6 3 C5.67 3.99 5.34 4.98 5 6 C4.34 6 3.68 6 3 6 C3 6.66 3 7.32 3 8 C2.01 8 1.02 8 0 8 C-1.4606285 5.35261084 -2 4.10551666 -2 1 C-1.34 0.67 -0.68 0.34 0 0 Z " fill="#BCBCBC" transform="translate(186,417)"/>
<path d="M0 0 C2.17581687 2.84881728 4.20937999 5.76084088 6.1875 8.75 C6.71730469 9.54921875 7.24710938 10.3484375 7.79296875 11.171875 C8.19128906 11.77515625 8.58960938 12.3784375 9 13 C8.67 13.66 8.34 14.32 8 15 C6.125 14.8125 6.125 14.8125 4 14 C2.875 11.75 2.875 11.75 2 9 C1.62875 8.154375 1.2575 7.30875 0.875 6.4375 C0 4 0 4 0 0 Z " fill="#797979" transform="translate(215,301)"/>
<path d="M0 0 C1.32 0 2.64 0 4 0 C4 0.66 4 1.32 4 2 C4.61875 2.165 5.2375 2.33 5.875 2.5 C9.27756949 4.90181375 9.22612026 8.00162134 10 12 C8.33333333 10.33333333 6.66666667 8.66666667 5 7 C4.071875 6.113125 3.14375 5.22625 2.1875 4.3125 C0 2 0 2 0 0 Z " fill="#9F9F9F" transform="translate(240,288)"/>
<path d="M0 0 C2.475 0.495 2.475 0.495 5 1 C5.33 3.64 5.66 6.28 6 9 C4.35 8.67 2.7 8.34 1 8 C0.67 5.36 0.34 2.72 0 0 Z " fill="#F5F5F5" transform="translate(318,215)"/>
<path d="M0 0 C1.0013988 3.00419641 1.51421457 5.87709365 2 9 C1.01 9.66 0.02 10.32 -1 11 C-1.66 9.35 -2.32 7.7 -3 6 C-3.66 6 -4.32 6 -5 6 C-3.63016497 2.83884224 -3.0109362 2.0072908 0 0 Z " fill="#E2E2E2" transform="translate(235,243)"/>
<path d="M0 0 C0.33 0.66 0.66 1.32 1 2 C2.98 2 4.96 2 7 2 C4.22719294 5.08089673 1.93673644 6.68775452 -2 8 C-2.33 6.35 -2.66 4.7 -3 3 C-2.01 2.67 -1.02 2.34 0 2 C0 1.34 0 0.68 0 0 Z " fill="#B2B2B2" transform="translate(102,273)"/>
<path d="M0 0 C4.13342172 1.37780724 5.01794989 3.17747479 7 7 C6.75 10.875 6.75 10.875 6 14 C4.45372329 11.68058494 3.13817172 9.47020248 1.875 7 C1.52179688 6.319375 1.16859375 5.63875 0.8046875 4.9375 C0 3 0 3 0 0 Z " fill="#818181" transform="translate(262,160)"/>
<path d="M0 0 C0.66 0.66 1.32 1.32 2 2 C2.33 2 2.66 2 3 2 C4.33568021 2.32380126 5.66923011 2.65657551 7 3 C6.34 3 5.68 3 5 3 C4.731875 3.61875 4.46375 4.2375 4.1875 4.875 C3 7 3 7 0 9 C-0.66 8.67 -1.32 8.34 -2 8 C-1.67 7.34 -1.34 6.68 -1 6 C-1 5.01 -1 4.02 -1 3 C-0.67 2.01 -0.34 1.02 0 0 Z " fill="#C2C2C2" transform="translate(148,284)"/>
<path d="M0 0 C4.23830976 2.82553984 3.97715348 5.12180888 5 10 C4.34 10 3.68 10 3 10 C2.67 10.99 2.34 11.98 2 13 C0.18884044 11.18884044 0.61800552 8.38721773 0.4375 5.9375 C0.35371094 4.83277344 0.26992188 3.72804687 0.18359375 2.58984375 C0.09271484 1.30787109 0.09271484 1.30787109 0 0 Z " fill="#DCDCDC" transform="translate(314,198)"/>
<path d="M0 0 C0.33 0.99 0.66 1.98 1 3 C3.64 3.33 6.28 3.66 9 4 C7.25 6.0625 7.25 6.0625 5 8 C2.75 7.75 2.75 7.75 1 7 C0.67 4.69 0.34 2.38 0 0 Z " fill="#D1D1D1" transform="translate(55,334)"/>
<path d="M0 0 C1 2 1 2 0.0625 5.125 C-0.288125 6.07375 -0.63875 7.0225 -1 8 C-0.01 8 0.98 8 2 8 C1.67 8.99 1.34 9.98 1 11 C0.34 11 -0.32 11 -1 11 C-2.38232443 12.62626404 -3.71937515 14.2925002 -5 16 C-4.49228528 10.03435204 -2.61407872 5.36190101 0 0 Z " fill="#7F7F7F" transform="translate(74,202)"/>
<path d="M0 0 C1.32 0.99 2.64 1.98 4 3 C3.79375 3.61875 3.5875 4.2375 3.375 4.875 C3.25125 5.57625 3.1275 6.2775 3 7 C3.66 7.66 4.32 8.32 5 9 C2 9 2 9 0.61328125 7.6875 C-0.59114583 6.125 -1.79557292 4.5625 -3 3 C-2.01 2.01 -1.02 1.02 0 0 Z " fill="#BFBFBF" transform="translate(288,336)"/>
<path d="M0 0 C0.66 0.33 1.32 0.66 2 1 C1.34 2.98 0.68 4.96 0 7 C-0.99 6.34 -1.98 5.68 -3 5 C-4.32 6.65 -5.64 8.3 -7 10 C-7.66 9.67 -8.32 9.34 -9 9 C-7.83709195 5.51127585 -6.86032391 4.90023136 -3.9375 2.8125 C-3.20402344 2.28269531 -2.47054687 1.75289063 -1.71484375 1.20703125 C-1.14894531 0.80871094 -0.58304688 0.41039062 0 0 Z " fill="#A0A0A0" transform="translate(86,302)"/>
<path d="M0 0 C1.26237731 2.52475462 1.09856404 4.31200466 1.0625 7.125 C1.05347656 8.03507813 1.04445312 8.94515625 1.03515625 9.8828125 C1.02355469 10.58148438 1.01195312 11.28015625 1 12 C-1.8605891 10.64062915 -3.85927699 9.35479531 -6 7 C-5.67 6.34 -5.34 5.68 -5 5 C-3.515 5.99 -3.515 5.99 -2 7 C-1.855625 6.030625 -1.71125 5.06125 -1.5625 4.0625 C-1 1 -1 1 0 0 Z " fill="#4A4A4A" transform="translate(176,247)"/>
<path d="M0 0 C0.66 0.33 1.32 0.66 2 1 C-2.52345397 5.6850059 -5.3718775 8.24680426 -12 9 C-8.71757696 5.3236862 -5.27450592 3.3388806 -1 1 C-0.67 0.67 -0.34 0.34 0 0 Z " fill="#929292" transform="translate(136,244)"/>
<path d="M0 0 C1.95273962 2.92910944 2.75396363 5.08132291 3.6875 8.4375 C3.95949219 9.38496094 4.23148437 10.33242187 4.51171875 11.30859375 C4.99803744 13.98918237 4.89369149 15.46287583 4 18 C3.67 17.01 3.34 16.02 3 15 C2.34 14.67 1.68 14.34 1 14 C1.020625 12.989375 1.04125 11.97875 1.0625 10.9375 C1.00312266 7.19672743 0.60204915 3.68755102 0 0 Z " fill="#6A6A6A" transform="translate(323,217)"/>
<path d="M0 0 C2 3 2 3 2 5 C1.01 4.67 0.02 4.34 -1 4 C-0.67 2.68 -0.34 1.36 0 0 Z M-6 3 C-3.525 3.99 -3.525 3.99 -1 5 C-1 7.64 -1 10.28 -1 13 C-3 12 -3 12 -3.8515625 9.93359375 C-4.10679687 9.10988281 -4.36203125 8.28617188 -4.625 7.4375 C-4.88539063 6.61121094 -5.14578125 5.78492188 -5.4140625 4.93359375 C-5.60742188 4.29550781 -5.80078125 3.65742187 -6 3 Z " fill="#888888" transform="translate(143,551)"/>
<path d="M0 0 C0.33 0.66 0.66 1.32 1 2 C1.66 2.33 2.32 2.66 3 3 C2.04956626 4.33897583 1.08940853 5.67105427 0.125 7 C-0.40867187 7.7425 -0.94234375 8.485 -1.4921875 9.25 C-1.98976563 9.8275 -2.48734375 10.405 -3 11 C-3.66 11 -4.32 11 -5 11 C-3.55049545 7.2089881 -1.84827434 3.6125362 0 0 Z " fill="#909090" transform="translate(291,525)"/>
<path d="M0 0 C1.14926266 0.95421808 2.29430541 1.91352045 3.4375 2.875 C4.07558594 3.40867187 4.71367187 3.94234375 5.37109375 4.4921875 C7 6 7 6 8 8 C6 7 4 6 2 5 C2 5.66 2 6.32 2 7 C0.68 7 -0.64 7 -2 7 C-1.67 6.21625 -1.34 5.4325 -1 4.625 C0.11866511 2.15667503 0.11866511 2.15667503 0 0 Z " fill="#A2A2A2" transform="translate(335,359)"/>
<path d="M0 0 C0.66 0.99 1.32 1.98 2 3 C1.01 3.495 1.01 3.495 0 4 C-0.59070014 5.94603274 -0.59070014 5.94603274 -1 8 C-1.33 8.66 -1.66 9.32 -2 10 C-2.99 10 -3.98 10 -5 10 C-5 10.99 -5 11.98 -5 13 C-5.66 13 -6.32 13 -7 13 C-5.35821735 8.22390502 -2.73453298 4.20617096 0 0 Z " fill="#838383" transform="translate(153,298)"/>
<path d="M0 0 C2.97 0.495 2.97 0.495 6 1 C6.33 2.65 6.66 4.3 7 6 C5.02 6 3.04 6 1 6 C-0.0625 4.125 -0.0625 4.125 -1 2 C-0.67 1.34 -0.34 0.68 0 0 Z " fill="#F1F1F1" transform="translate(172,257)"/>
<path d="M0 0 C0.33 0 0.66 0 1 0 C1.55353075 11.70615034 1.55353075 11.70615034 -2 16 C-3.3805087 12.23331402 -2.59568159 9.55210827 -1.5625 5.75 C-1.27503906 4.67234375 -0.98757813 3.5946875 -0.69140625 2.484375 C-0.46324219 1.66453125 -0.23507812 0.8446875 0 0 Z " fill="#959595" transform="translate(262,502)"/>
<path d="M0 0 C2 3 2 3 1.625 5.6875 C1.41875 6.450625 1.2125 7.21375 1 8 C-0.32 8 -1.64 8 -3 8 C-3 6.35 -3 4.7 -3 3 C-2.34 3 -1.68 3 -1 3 C-0.67 2.01 -0.34 1.02 0 0 Z " fill="#F3F3F3" transform="translate(301,508)"/>
<path d="M0 0 C0.99 0 1.98 0 3 0 C3 0.99 3 1.98 3 3 C3.99 2.67 4.98 2.34 6 2 C7.06775224 3.96466413 8.06553465 5.96855359 9 8 C8.67 8.66 8.34 9.32 8 10 C6.66370254 8.52351062 5.33103329 7.0437367 4 5.5625 C3.2575 4.73878906 2.515 3.91507812 1.75 3.06640625 C0 1 0 1 0 0 Z " fill="#9E9E9E" transform="translate(260,311)"/>
<path d="M0 0 C-1.6875 2.5 -1.6875 2.5 -4 5 C-6.75 5.3125 -6.75 5.3125 -9 5 C-7.93411431 2.09303901 -7.29651501 1.15567038 -4.5 -0.3125 C-2 -1 -2 -1 0 0 Z " fill="#838383" transform="translate(229,265)"/>
<path d="M0 0 C0.598125 0.226875 1.19625 0.45375 1.8125 0.6875 C0.7149777 3.68074263 0.13567108 4.53360901 -2.8125 5.9375 C-3.59625 6.185 -4.38 6.4325 -5.1875 6.6875 C-5.1875 2.6875 -5.1875 2.6875 -3.9375 0.875 C-2.1875 -0.3125 -2.1875 -0.3125 0 0 Z " fill="#F8F8F8" transform="translate(242.1875,258.3125)"/>
<path d="M0 0 C1.24546405 2.49092811 0.7767578 3.41080733 0 6 C0.99 6 1.98 6 3 6 C2.67 7.98 2.34 9.96 2 12 C1.566875 11.360625 1.13375 10.72125 0.6875 10.0625 C-0.91239177 7.73253997 -0.91239177 7.73253997 -4 7 C-2.68 4.69 -1.36 2.38 0 0 Z " fill="#7F7F7F" transform="translate(118,178)"/>
<path d="M0 0 C0 3.86695678 -1.41909971 6.5088452 -3 10 C-4.5625 8.3125 -4.5625 8.3125 -6 6 C-5.6875 3.25 -5.6875 3.25 -5 1 C-4.34 1.33 -3.68 1.66 -3 2 C-2.01 1.34 -1.02 0.68 0 0 Z " fill="#979797" transform="translate(248,567)"/>
<path d="M0 0 C1 3 1 3 0.22265625 5.04296875 C-0.16019531 5.75066406 -0.54304688 6.45835937 -0.9375 7.1875 C-1.31777344 7.90292969 -1.69804687 8.61835938 -2.08984375 9.35546875 C-2.54037109 10.16951172 -2.54037109 10.16951172 -3 11 C-3.33 10.01 -3.66 9.02 -4 8 C-4.66 7.67 -5.32 7.34 -6 7 C-5.67 6.01 -5.34 5.02 -5 4 C-4.01 4 -3.02 4 -2 4 C-1.34 2.68 -0.68 1.36 0 0 Z " fill="#9B9B9B" transform="translate(314,491)"/>
<path d="M0 0 C0.99 0 1.98 0 3 0 C3 2.97 3 5.94 3 9 C2.34 7.68 1.68 6.36 1 5 C0.34 5.66 -0.32 6.32 -1 7 C-1.625 4.625 -1.625 4.625 -2 2 C-1.34 1.34 -0.68 0.68 0 0 Z " fill="#D4D4D4" transform="translate(116,185)"/>
<path d="M0 0 C1.98 0.99 1.98 0.99 4 2 C4 3.65 4 5.3 4 7 C3.01 7.495 3.01 7.495 2 8 C1.34 7.67 0.68 7.34 0 7 C0 4.69 0 2.38 0 0 Z " fill="#BFBFBF" transform="translate(268,170)"/>
<path d="M0 0 C0.66 0 1.32 0 2 0 C1.54917531 1.46067199 1.08906463 2.91848032 0.625 4.375 C0.36976563 5.18710938 0.11453125 5.99921875 -0.1484375 6.8359375 C-1 9 -1 9 -3 11 C-3.75 8.875 -3.75 8.875 -4 6 C-2.1875 2.6875 -2.1875 2.6875 0 0 Z " fill="#8B8B8B" transform="translate(128,161)"/>
<path d="M0 0 C0.33 0.66 0.66 1.32 1 2 C1.66 2 2.32 2 3 2 C1.9024777 4.99324263 1.32317108 5.84610901 -1.625 7.25 C-2.40875 7.4975 -3.1925 7.745 -4 8 C-2.87548273 5.0280615 -1.77706209 2.66559313 0 0 Z " fill="#B1B1B1" transform="translate(100,383)"/>
<path d="M0 0 C1.31611677 0.95336021 2.62778961 1.91285774 3.9375 2.875 C4.66839844 3.40867187 5.39929688 3.94234375 6.15234375 4.4921875 C8 6 8 6 9 8 C6.50638429 6.79618552 4.31856917 5.54571278 2 4 C2 4.66 2 5.32 2 6 C1.34 6 0.68 6 0 6 C-1.125 2.25 -1.125 2.25 0 0 Z " fill="#939393" transform="translate(265,297)"/>
<path d="M0 0 C4.10958767 1.45044271 7.43258745 3.51110752 11 6 C10.01 6.495 10.01 6.495 9 7 C8.34 6.67 7.68 6.34 7 6 C6.67 6.66 6.34 7.32 6 8 C5.67 7.01 5.34 6.02 5 5 C4.01 5 3.02 5 2 5 C1.34 3.35 0.68 1.7 0 0 Z " fill="#888888" transform="translate(248,240)"/>
<path d="M0 0 C2.49126366 1.12508681 3.47475191 2.60774047 4.9375 4.875 C3.6175 4.875 2.2975 4.875 0.9375 4.875 C0.6075 4.215 0.2775 3.555 -0.0625 2.875 C-1.0525 3.37 -1.0525 3.37 -2.0625 3.875 C-4.1875 2.9375 -4.1875 2.9375 -6.0625 1.875 C-3.89659519 0.55998637 -2.56128708 -0.15522952 0 0 Z " fill="#9B9B9B" transform="translate(153.0625,235.125)"/>
<path d="M0 0 C2.15377564 2.62198774 3.40072174 4.64404172 4 8 C3.34 8 2.68 8 2 8 C2 7.34 2 6.68 2 6 C1.34 6 0.68 6 0 6 C-0.66 6.66 -1.32 7.32 -2 8 C-2.33 6.35 -2.66 4.7 -3 3 C-2.34 3 -1.68 3 -1 3 C-0.67 2.01 -0.34 1.02 0 0 Z " fill="#7D7D7D" transform="translate(272,174)"/>
<path d="M0 0 C3.09592835 3.5087188 4.74194623 6.49197399 6 11 C5.34 11 4.68 11 4 11 C1.63496961 8.00893216 0.08446819 5.97138418 -0.25 2.125 C-0.1675 1.42375 -0.085 0.7225 0 0 Z " fill="#9D9D9D" transform="translate(100,525)"/>
<path d="M0 0 C0.66 0 1.32 0 2 0 C0.54144353 3.68646141 -1.30229045 5.16143971 -4.625 7.25 C-5.44226563 7.77078125 -6.25953125 8.2915625 -7.1015625 8.828125 C-8.04128906 9.40820312 -8.04128906 9.40820312 -9 10 C-7.30343574 6.26127505 -5.38732271 4.3711259 -2 2 C-1.34 2 -0.68 2 0 2 C0 1.34 0 0.68 0 0 Z " fill="#8D8D8D" transform="translate(71,346)"/>
<path d="M0 0 C3.36591866 1.44253657 5.51047079 3.33264727 8 6 C7.34 6 6.68 6 6 6 C5.01 7.485 5.01 7.485 4 9 C2.47551369 6.0173094 1.06059933 3.181798 0 0 Z " fill="#838383" transform="translate(201,234)"/>
<path d="M0 0 C0.66 0 1.32 0 2 0 C1.25 6.625 1.25 6.625 -1 10 C-2.1875 8.375 -2.1875 8.375 -3 6 C-1.625 2.75 -1.625 2.75 0 0 Z " fill="#898989" transform="translate(80,189)"/>
<path d="M0 0 C0.33 0.66 0.66 1.32 1 2 C-0.28062485 3.7074998 -1.61767557 5.37373596 -3 7 C-3.66 7 -4.32 7 -5 7 C-5 7.66 -5 8.32 -5 9 C-5.99 9 -6.98 9 -8 9 C-8 8.34 -8 7.68 -8 7 C-6.25 5.2734375 -6.25 5.2734375 -4 3.375 C-3.2575 2.74335938 -2.515 2.11171875 -1.75 1.4609375 C-1.1725 0.97882813 -0.595 0.49671875 0 0 Z " fill="#AAAAAA" transform="translate(57,359)"/>
<path d="M0 0 C0.66 0.33 1.32 0.66 2 1 C1.67 2.32 1.34 3.64 1 5 C0.01 5 -0.98 5 -2 5 C-2.33 5.99 -2.66 6.98 -3 8 C-4.32 7.67 -5.64 7.34 -7 7 C-6.01 6.67 -5.02 6.34 -4 6 C-4 5.34 -4 4.68 -4 4 C-2.70766393 2.62689293 -1.37562854 1.28965176 0 0 Z " fill="#A9A9A9" transform="translate(102,318)"/>
<path d="M0 0 C0.66 0.99 1.32 1.98 2 3 C-0.64 3.99 -3.28 4.98 -6 6 C-5.67 4.68 -5.34 3.36 -5 2 C-2.4375 0.75 -2.4375 0.75 0 0 Z " fill="#F8F8F8" transform="translate(251,265)"/>
<path d="M0 0 C0.99 0 1.98 0 3 0 C3 1.98 3 3.96 3 6 C1.68 6 0.36 6 -1 6 C-1.042721 4.33388095 -1.04063832 2.66617115 -1 1 C-0.67 0.67 -0.34 0.34 0 0 Z " fill="#F2F2F2" transform="translate(142,556)"/>
<path d="M0 0 C2.72426311 2.35277269 3.8141763 4.62496331 5 8 C3.35 7.67 1.7 7.34 0 7 C-1.125 2.25 -1.125 2.25 0 0 Z " fill="#A8A8A8" transform="translate(284,371)"/>
<path d="M0 0 C0.99 0.33 1.98 0.66 3 1 C2.814375 1.598125 2.62875 2.19625 2.4375 2.8125 C1.77906313 5.16408762 1.77906313 5.16408762 3 8 C0.03 7.505 0.03 7.505 -3 7 C-2.67 6.34 -2.34 5.68 -2 5 C-1.34 5 -0.68 5 0 5 C0 3.35 0 1.7 0 0 Z " fill="#ECECEC" transform="translate(170,273)"/>
<path d="M0 0 C0 2.33333333 0 4.66666667 0 7 C-2.31 7.33 -4.62 7.66 -7 8 C-5.61918777 3.8575633 -3.40174442 2.67796901 0 0 Z " fill="#8F8F8F" transform="translate(223,251)"/>
<path d="M0 0 C0.99 0.33 1.98 0.66 3 1 C3.33 3.31 3.66 5.62 4 8 C3.01 7.67 2.02 7.34 1 7 C0.67 4.69 0.34 2.38 0 0 Z " fill="#DADADA" transform="translate(147,570)"/>
<path d="M0 0 C0.99 0.33 1.98 0.66 3 1 C2.67 2.32 2.34 3.64 2 5 C1.01 5 0.02 5 -1 5 C-1.66 4.34 -2.32 3.68 -3 3 C-2.01 2.01 -1.02 1.02 0 0 Z " fill="#C9C9C9" transform="translate(262,531)"/>
<path d="M0 0 C0.33 0 0.66 0 1 0 C2.37024221 7.91695502 2.37024221 7.91695502 1 11 C0.01 11.66 -0.98 12.32 -2 13 C-1.48041715 8.62065881 -0.94324258 4.31196609 0 0 Z " fill="#818181" transform="translate(312,465)"/>
<path d="M0 0 C0.66 0.33 1.32 0.66 2 1 C2.625 4.0625 2.625 4.0625 3 7 C2.01 7.495 2.01 7.495 1 8 C-0.5 6.6875 -0.5 6.6875 -2 5 C-2 4.01 -2 3.02 -2 2 C-1.34 2 -0.68 2 0 2 C0 1.34 0 0.68 0 0 Z " fill="#F8F8F8" transform="translate(292,337)"/>
<path d="M0 0 C2.88437779 1.29299694 4.87219421 2.65941363 7 5 C4.69 5.33 2.38 5.66 0 6 C-1 3 -1 3 0 0 Z " fill="#ABABAB" transform="translate(307,304)"/>
<path d="M0 0 C3.36720387 1.39332574 4.9859524 2.9789286 7 6 C5.35 6.66 3.7 7.32 2 8 C2 6.68 2 5.36 2 4 C1.06716704 1.79932579 1.06716704 1.79932579 0 0 Z " fill="#969696" transform="translate(251,285)"/>
<path d="M0 0 C2.31 0 4.62 0 7 0 C3.92000054 3.67230705 1.7517398 4.56802365 -3 5 C-1 3 -1 3 2 2 C1.34 1.34 0.68 0.68 0 0 Z " fill="#2F2F2F" transform="translate(163,285)"/>
<path d="M0 0 C2.64 1.65 5.28 3.3 8 5 C4 6 4 6 1.75 5.0625 C1.1725 4.711875 0.595 4.36125 0 4 C0 2.68 0 1.36 0 0 Z " fill="#A6A6A6" transform="translate(257,267)"/>
<path d="M0 0 C2.97 0.495 2.97 0.495 6 1 C1.375 5 1.375 5 -2 5 C-1.34 3.35 -0.68 1.7 0 0 Z " fill="#9F9F9F" transform="translate(128,258)"/>
<path d="M0 0 C0.33 0.99 0.66 1.98 1 3 C-0.1446875 3.2165625 -0.1446875 3.2165625 -1.3125 3.4375 C-4.08172908 3.9632594 -4.08172908 3.9632594 -7 5 C-6.625 3.0625 -6.625 3.0625 -6 1 C-4 0 -4 0 0 0 Z " fill="#F1F1F1" transform="translate(122,257)"/>
<path d="M0 0 C0.66 0 1.32 0 2 0 C1.67 2.64 1.34 5.28 1 8 C0.01 8 -0.98 8 -2 8 C-1.125 2.25 -1.125 2.25 0 0 Z " fill="#F6F6F6" transform="translate(75,202)"/>
<path d="M0 0 C0.99 0.33 1.98 0.66 3 1 C3.33 2.65 3.66 4.3 4 6 C2.68 6.33 1.36 6.66 0 7 C0 4.69 0 2.38 0 0 Z " fill="#D9D9D9" transform="translate(271,179)"/>
<path d="M0 0 C1.32 0.66 2.64 1.32 4 2 C2.35 3.65 0.7 5.3 -1 7 C-1.625 5.1875 -1.625 5.1875 -2 3 C-1.34 2.01 -0.68 1.02 0 0 Z " fill="#BFBFBF" transform="translate(101,340)"/>
<path d="M0 0 C0.99 0.33 1.98 0.66 3 1 C3.99 1 4.98 1 6 1 C2.535 3.97 2.535 3.97 -1 7 C-1.66 6.67 -2.32 6.34 -3 6 C-2 4 -1 2 0 0 Z " fill="#757575" transform="translate(102,303)"/>
<path d="M0 0 C1.98 0.495 1.98 0.495 4 1 C3.1875 3.4375 3.1875 3.4375 2 6 C1.01 6.33 0.02 6.66 -1 7 C-0.67 4.69 -0.34 2.38 0 0 Z " fill="#F6F6F6" transform="translate(159,263)"/>
<path d="M0 0 C0.66 0 1.32 0 2 0 C1.67 1.98 1.34 3.96 1 6 C0.01 6.33 -0.98 6.66 -2 7 C-1.125 1.125 -1.125 1.125 0 0 Z " fill="#D0D0D0" transform="translate(123,169)"/>
<path d="M0 0 C0.66 1.32 1.32 2.64 2 4 C0.75 6.75 0.75 6.75 -1 9 C-1.66 9 -2.32 9 -3 9 C-2.01 6.03 -1.02 3.06 0 0 Z " fill="#6C6C6C" transform="translate(238,581)"/>
<path d="M0 0 C0.33 0.99 0.66 1.98 1 3 C-2.3 3.33 -5.6 3.66 -9 4 C-5.8155864 0.8155864 -4.35822804 0 0 0 Z " fill="#838383" transform="translate(200,418)"/>
<path d="M0 0 C1.31611677 0.95336021 2.62778961 1.91285774 3.9375 2.875 C4.66839844 3.40867187 5.39929688 3.94234375 6.15234375 4.4921875 C8 6 8 6 9 8 C8.1646875 7.566875 8.1646875 7.566875 7.3125 7.125 C4.91505355 5.9586747 2.48403061 4.9660119 0 4 C0 2.68 0 1.36 0 0 Z " fill="#757575" transform="translate(318,344)"/>
<path d="M0 0 C1.42944945 2.35438733 2.08661261 3.48032433 1.625 6.25 C1.41875 6.8275 1.2125 7.405 1 8 C-0.32 6.35 -1.64 4.7 -3 3 C-2.01 2.01 -1.02 1.02 0 0 Z " fill="#C6C6C6" transform="translate(281,328)"/>
<path d="M0 0 C-1.65 1.65 -3.3 3.3 -5 5 C-5.33 3.35 -5.66 1.7 -6 0 C-3.50907189 -1.24546405 -2.58919267 -0.7767578 0 0 Z " fill="#A8A8A8" transform="translate(127,318)"/>
<path d="M0 0 C0.66 0.33 1.32 0.66 2 1 C1.6875 2.875 1.6875 2.875 1 5 C0.01 5.66 -0.98 6.32 -2 7 C-2.33 5.35 -2.66 3.7 -3 2 C-2.01 1.34 -1.02 0.68 0 0 Z " fill="#CCCCCC" transform="translate(232,251)"/>
<path d="M0 0 C0.33 0.99 0.66 1.98 1 3 C-0.9375 5.6875 -0.9375 5.6875 -3 8 C-3 7.01 -3 6.02 -3 5 C-3.66 4.67 -4.32 4.34 -5 4 C-3.35 2.68 -1.7 1.36 0 0 Z " fill="#7B7B7B" transform="translate(190,234)"/>
<path d="M0 0 C1.04449911 3.13349732 0.93423645 3.98968256 0 7 C-0.99 7 -1.98 7 -3 7 C-2.625 4.0625 -2.625 4.0625 -2 1 C-1.34 0.67 -0.68 0.34 0 0 Z " fill="#F1F1F1" transform="translate(121,177)"/>
<path d="M0 0 C2.29633824 3.44450737 2.54016485 5.93812283 3 10 C2.34 10 1.68 10 1 10 C0.37542727 6.56484998 0 3.50935186 0 0 Z " fill="#A3A3A3" transform="translate(150,572)"/>
<path d="M0 0 C1.32 0.33 2.64 0.66 4 1 C3.34 2.32 2.68 3.64 2 5 C0.68 5 -0.64 5 -2 5 C-1.34 3.35 -0.68 1.7 0 0 Z " fill="#CBCBCB" transform="translate(107,372)"/>
<path d="M0 0 C0.33 0.99 0.66 1.98 1 3 C-1.46278801 5.46278801 -3.70676982 5.99771255 -7 7 C-5.625 5 -5.625 5 -4 3 C-3.34 3 -2.68 3 -2 3 C-2 2.34 -2 1.68 -2 1 C-1.34 0.67 -0.68 0.34 0 0 Z " fill="#969696" transform="translate(111,311)"/>
<path d="M0 0 C0.99 0.33 1.98 0.66 3 1 C4.1875 3.5625 4.1875 3.5625 5 6 C3.35 5.67 1.7 5.34 0 5 C-0.5625 3.0625 -0.5625 3.0625 -1 1 C-0.67 0.67 -0.34 0.34 0 0 Z " fill="#9A9A9A" transform="translate(219,310)"/>
<path d="M0 0 C0.66 0.33 1.32 0.66 2 1 C1.67 2.32 1.34 3.64 1 5 C-1.31 5.33 -3.62 5.66 -6 6 C-4 4 -2 2 0 0 Z " fill="#818181" transform="translate(94,296)"/>
<path d="M0 0 C0.66 0.33 1.32 0.66 2 1 C1.67 1.99 1.34 2.98 1 4 C-0.84765625 4.73046875 -0.84765625 4.73046875 -3.0625 5.1875 C-3.79597656 5.34605469 -4.52945313 5.50460937 -5.28515625 5.66796875 C-6.13400391 5.83232422 -6.13400391 5.83232422 -7 6 C-4.74259377 3.66475218 -2.7194239 1.81294927 0 0 Z " fill="#858585" transform="translate(103,290)"/>
<path d="M0 0 C2.52259061 1.97420135 2.9929808 2.96745642 3.6875 6.1875 C3.790625 7.115625 3.89375 8.04375 4 9 C2.68 8.67 1.36 8.34 0 8 C0.66 7.67 1.32 7.34 2 7 C1.34 4.69 0.68 2.38 0 0 Z " fill="#717171" transform="translate(317,201)"/>
<path d="M0 0 C2.12046792 3.53411321 2.53199289 6.94393835 3 11 C0.9375 9.4375 0.9375 9.4375 -1 7 C-0.75 3.25 -0.75 3.25 0 0 Z " fill="#828282" transform="translate(136,527)"/>
<path d="M0 0 C2.475 0.495 2.475 0.495 5 1 C5 2.65 5 4.3 5 6 C3.31237149 4.3545622 1.6459651 2.68711423 0 1 C0 0.67 0 0.34 0 0 Z " fill="#C6C6C6" transform="translate(95,523)"/>
<path d="M0 0 C1.125 1.75 1.125 1.75 2 4 C1.03284133 6.65968633 -0.41948242 8.62922362 -2 11 C-1 3.57142857 -1 3.57142857 0 0 Z " fill="#828282" transform="translate(258,518)"/>
<path d="M0 0 C1.37562854 1.28965176 2.70766393 2.62689293 4 4 C4 4.66 4 5.32 4 6 C2.02 6.99 2.02 6.99 0 8 C0 5.36 0 2.72 0 0 Z " fill="#A0A0A0" transform="translate(289,379)"/>
<path d="M0 0 C0.66 0.33 1.32 0.66 2 1 C0.52307692 5.67692308 0.52307692 5.67692308 -2.125 7.3125 C-3.053125 7.6528125 -3.053125 7.6528125 -4 8 C-2.87548273 5.0280615 -1.77706209 2.66559313 0 0 Z " fill="#6E6E6E" transform="translate(173,307)"/>
<path d="M0 0 C0.99 0.66 1.98 1.32 3 2 C1.35 3.98 -0.3 5.96 -2 8 C-2 5.66666667 -2 3.33333333 -2 1 C-1.34 0.67 -0.68 0.34 0 0 Z " fill="#909090" transform="translate(135,304)"/>
<path d="M0 0 C2.97 0.495 2.97 0.495 6 1 C6 2.32 6 3.64 6 5 C2.83884224 3.63016497 2.0072908 3.0109362 0 0 Z " fill="#A7A7A7" transform="translate(279,298)"/>
<path d="M0 0 C0.66 0 1.32 0 2 0 C2 1.98 2 3.96 2 6 C1.01 5.67 0.02 5.34 -1 5 C-1.33 4.01 -1.66 3.02 -2 2 C-1.34 1.34 -0.68 0.68 0 0 Z " fill="#CCCCCC" transform="translate(263,257)"/>
</svg>
